<svg width="121" height="33" viewBox="0 0 121 33" fill="none" xmlns="http://www.w3.org/2000/svg">
<g style="mix-blend-mode:darken" opacity="0.8" filter="url(#filter0_dd_8_2)">
<mask id="path-1-outside-1_8_2" maskUnits="userSpaceOnUse" x="4" y="3" width="113" height="25" fill="black">
<rect fill="white" x="4" y="3" width="113" height="25"/>
<path d="M5.06738 21V19.104L16.8754 6.288L17.6914 6.744H5.69138V4.2H20.5474V6.072L8.76338 18.912L7.94738 18.456H20.8114V21H5.06738ZM29.5682 26.52L32.7842 20.664L32.8082 22.56L25.1282 8.4H28.0322L31.8002 15.768C32.2802 16.664 32.6882 17.48 33.0242 18.216C33.3762 18.936 33.6082 19.576 33.7202 20.136L33.3602 20.16C33.5682 19.616 33.8322 18.968 34.1522 18.216C34.4722 17.464 34.8642 16.632 35.3282 15.72L38.8562 8.4H41.7602L35.0402 21.12L32.2082 26.52H29.5682ZM53.2641 21.24C51.8401 21.24 50.5921 20.96 49.5201 20.4C48.4481 19.84 47.6161 19.064 47.0241 18.072C46.4481 17.08 46.1601 15.952 46.1601 14.688C46.1601 13.408 46.4641 12.28 47.0721 11.304C47.6961 10.312 48.5601 9.536 49.6641 8.976C50.7681 8.416 52.0241 8.136 53.4321 8.136C54.3121 8.136 55.1201 8.24 55.8561 8.448C56.6081 8.656 57.2641 8.936 57.8241 9.288C58.3841 9.64 58.8161 10.024 59.1201 10.44C59.4401 10.84 59.6081 11.248 59.6241 11.664H58.9281V8.4H61.4001V21H58.9281V17.616L59.4321 17.736C59.4161 18.12 59.2321 18.52 58.8801 18.936C58.5441 19.336 58.0881 19.712 57.5121 20.064C56.9521 20.416 56.3041 20.704 55.5681 20.928C54.8321 21.136 54.0641 21.24 53.2641 21.24ZM53.8401 18.96C54.8641 18.96 55.7681 18.776 56.5521 18.408C57.3361 18.024 57.9441 17.512 58.3761 16.872C58.8081 16.216 59.0241 15.488 59.0241 14.688C59.0241 13.888 58.8081 13.168 58.3761 12.528C57.9441 11.888 57.3361 11.384 56.5521 11.016C55.7681 10.632 54.8641 10.44 53.8401 10.44C52.8321 10.44 51.9361 10.632 51.1521 11.016C50.3841 11.384 49.7761 11.888 49.3281 12.528C48.8961 13.168 48.6801 13.888 48.6801 14.688C48.6801 15.488 48.8961 16.216 49.3281 16.872C49.7761 17.512 50.3841 18.024 51.1521 18.408C51.9361 18.776 52.8321 18.96 53.8401 18.96ZM71.9136 21V4.608H74.3856V21H71.9136ZM68.1456 10.8V8.4H78.8496V10.8H68.1456ZM86.3803 21V8.4H88.8763V12.864L88.2523 12.552C88.4923 11.736 88.8923 11 89.4523 10.344C90.0123 9.672 90.6603 9.136 91.3963 8.736C92.1323 8.336 92.8923 8.136 93.6763 8.136C94.2043 8.136 94.7163 8.192 95.2123 8.304C95.7243 8.416 96.1163 8.568 96.3883 8.76L95.7403 11.328C95.4203 11.152 95.0283 11.008 94.5643 10.896C94.1163 10.784 93.6843 10.728 93.2683 10.728C92.6123 10.728 92.0123 10.848 91.4683 11.088C90.9403 11.312 90.4763 11.608 90.0763 11.976C89.6923 12.344 89.3963 12.76 89.1883 13.224C88.9803 13.672 88.8763 14.136 88.8763 14.616V21H86.3803ZM107.803 21.24C106.379 21.24 105.131 20.96 104.059 20.4C102.987 19.84 102.155 19.064 101.563 18.072C100.987 17.08 100.699 15.952 100.699 14.688C100.699 13.408 101.003 12.28 101.611 11.304C102.235 10.312 103.099 9.536 104.203 8.976C105.307 8.416 106.563 8.136 107.971 8.136C108.851 8.136 109.659 8.24 110.395 8.448C111.147 8.656 111.803 8.936 112.363 9.288C112.923 9.64 113.355 10.024 113.659 10.44C113.979 10.84 114.147 11.248 114.163 11.664H113.467V8.4H115.939V21H113.467V17.616L113.971 17.736C113.955 18.12 113.771 18.52 113.419 18.936C113.083 19.336 112.627 19.712 112.051 20.064C111.491 20.416 110.843 20.704 110.107 20.928C109.371 21.136 108.603 21.24 107.803 21.24ZM108.379 18.96C109.403 18.96 110.307 18.776 111.091 18.408C111.875 18.024 112.483 17.512 112.915 16.872C113.347 16.216 113.563 15.488 113.563 14.688C113.563 13.888 113.347 13.168 112.915 12.528C112.483 11.888 111.875 11.384 111.091 11.016C110.307 10.632 109.403 10.44 108.379 10.44C107.371 10.44 106.475 10.632 105.691 11.016C104.923 11.384 104.315 11.888 103.867 12.528C103.435 13.168 103.219 13.888 103.219 14.688C103.219 15.488 103.435 16.216 103.867 16.872C104.315 17.512 104.923 18.024 105.691 18.408C106.475 18.776 107.371 18.96 108.379 18.96Z"/>
</mask>
<path d="M5.06738 21V19.104L16.8754 6.288L17.6914 6.744H5.69138V4.2H20.5474V6.072L8.76338 18.912L7.94738 18.456H20.8114V21H5.06738ZM29.5682 26.52L32.7842 20.664L32.8082 22.56L25.1282 8.4H28.0322L31.8002 15.768C32.2802 16.664 32.6882 17.48 33.0242 18.216C33.3762 18.936 33.6082 19.576 33.7202 20.136L33.3602 20.16C33.5682 19.616 33.8322 18.968 34.1522 18.216C34.4722 17.464 34.8642 16.632 35.3282 15.72L38.8562 8.4H41.7602L35.0402 21.12L32.2082 26.52H29.5682ZM53.2641 21.24C51.8401 21.24 50.5921 20.96 49.5201 20.4C48.4481 19.84 47.6161 19.064 47.0241 18.072C46.4481 17.08 46.1601 15.952 46.1601 14.688C46.1601 13.408 46.4641 12.28 47.0721 11.304C47.6961 10.312 48.5601 9.536 49.6641 8.976C50.7681 8.416 52.0241 8.136 53.4321 8.136C54.3121 8.136 55.1201 8.24 55.8561 8.448C56.6081 8.656 57.2641 8.936 57.8241 9.288C58.3841 9.64 58.8161 10.024 59.1201 10.44C59.4401 10.84 59.6081 11.248 59.6241 11.664H58.9281V8.4H61.4001V21H58.9281V17.616L59.4321 17.736C59.4161 18.12 59.2321 18.52 58.8801 18.936C58.5441 19.336 58.0881 19.712 57.5121 20.064C56.9521 20.416 56.3041 20.704 55.5681 20.928C54.8321 21.136 54.0641 21.24 53.2641 21.24ZM53.8401 18.96C54.8641 18.96 55.7681 18.776 56.5521 18.408C57.3361 18.024 57.9441 17.512 58.3761 16.872C58.8081 16.216 59.0241 15.488 59.0241 14.688C59.0241 13.888 58.8081 13.168 58.3761 12.528C57.9441 11.888 57.3361 11.384 56.5521 11.016C55.7681 10.632 54.8641 10.44 53.8401 10.44C52.8321 10.44 51.9361 10.632 51.1521 11.016C50.3841 11.384 49.7761 11.888 49.3281 12.528C48.8961 13.168 48.6801 13.888 48.6801 14.688C48.6801 15.488 48.8961 16.216 49.3281 16.872C49.7761 17.512 50.3841 18.024 51.1521 18.408C51.9361 18.776 52.8321 18.96 53.8401 18.96ZM71.9136 21V4.608H74.3856V21H71.9136ZM68.1456 10.8V8.4H78.8496V10.8H68.1456ZM86.3803 21V8.4H88.8763V12.864L88.2523 12.552C88.4923 11.736 88.8923 11 89.4523 10.344C90.0123 9.672 90.6603 9.136 91.3963 8.736C92.1323 8.336 92.8923 8.136 93.6763 8.136C94.2043 8.136 94.7163 8.192 95.2123 8.304C95.7243 8.416 96.1163 8.568 96.3883 8.76L95.7403 11.328C95.4203 11.152 95.0283 11.008 94.5643 10.896C94.1163 10.784 93.6843 10.728 93.2683 10.728C92.6123 10.728 92.0123 10.848 91.4683 11.088C90.9403 11.312 90.4763 11.608 90.0763 11.976C89.6923 12.344 89.3963 12.76 89.1883 13.224C88.9803 13.672 88.8763 14.136 88.8763 14.616V21H86.3803ZM107.803 21.24C106.379 21.24 105.131 20.96 104.059 20.4C102.987 19.84 102.155 19.064 101.563 18.072C100.987 17.08 100.699 15.952 100.699 14.688C100.699 13.408 101.003 12.28 101.611 11.304C102.235 10.312 103.099 9.536 104.203 8.976C105.307 8.416 106.563 8.136 107.971 8.136C108.851 8.136 109.659 8.24 110.395 8.448C111.147 8.656 111.803 8.936 112.363 9.288C112.923 9.64 113.355 10.024 113.659 10.44C113.979 10.84 114.147 11.248 114.163 11.664H113.467V8.4H115.939V21H113.467V17.616L113.971 17.736C113.955 18.12 113.771 18.52 113.419 18.936C113.083 19.336 112.627 19.712 112.051 20.064C111.491 20.416 110.843 20.704 110.107 20.928C109.371 21.136 108.603 21.24 107.803 21.24ZM108.379 18.96C109.403 18.96 110.307 18.776 111.091 18.408C111.875 18.024 112.483 17.512 112.915 16.872C113.347 16.216 113.563 15.488 113.563 14.688C113.563 13.888 113.347 13.168 112.915 12.528C112.483 11.888 111.875 11.384 111.091 11.016C110.307 10.632 109.403 10.44 108.379 10.44C107.371 10.44 106.475 10.632 105.691 11.016C104.923 11.384 104.315 11.888 103.867 12.528C103.435 13.168 103.219 13.888 103.219 14.688C103.219 15.488 103.435 16.216 103.867 16.872C104.315 17.512 104.923 18.024 105.691 18.408C106.475 18.776 107.371 18.96 108.379 18.96Z" fill="black"/>
<path d="M5.06738 21H4.06738V22H5.06738V21ZM5.06738 19.104L4.33194 18.4264L4.06738 18.7136V19.104H5.06738ZM16.8754 6.288L17.3632 5.41506L16.6745 5.0302L16.1399 5.61041L16.8754 6.288ZM17.6914 6.744V7.744H21.5308L18.1792 5.87106L17.6914 6.744ZM5.69138 6.744H4.69138V7.744H5.69138V6.744ZM5.69138 4.2V3.2H4.69138V4.2H5.69138ZM20.5474 4.2H21.5474V3.2H20.5474V4.2ZM20.5474 6.072L21.2841 6.74816L21.5474 6.46132V6.072H20.5474ZM8.76338 18.912L8.27555 19.7849L8.96562 20.1706L9.50013 19.5882L8.76338 18.912ZM7.94738 18.456V17.456H4.10797L7.45955 19.3289L7.94738 18.456ZM20.8114 18.456H21.8114V17.456H20.8114V18.456ZM20.8114 21V22H21.8114V21H20.8114ZM5.06738 21H6.06738V19.104H5.06738H4.06738V21H5.06738ZM5.06738 19.104L5.80281 19.7816L17.6108 6.96559L16.8754 6.288L16.1399 5.61041L4.33194 18.4264L5.06738 19.104ZM16.8754 6.288L16.3876 7.16094L17.2036 7.61694L17.6914 6.744L18.1792 5.87106L17.3632 5.41506L16.8754 6.288ZM17.6914 6.744V5.744H5.69138V6.744V7.744H17.6914V6.744ZM5.69138 6.744H6.69138V4.2H5.69138H4.69138V6.744H5.69138ZM5.69138 4.2V5.2H20.5474V4.2V3.2H5.69138V4.2ZM20.5474 4.2H19.5474V6.072H20.5474H21.5474V4.2H20.5474ZM20.5474 6.072L19.8106 5.39584L8.02662 18.2358L8.76338 18.912L9.50013 19.5882L21.2841 6.74816L20.5474 6.072ZM8.76338 18.912L9.2512 18.0391L8.4352 17.5831L7.94738 18.456L7.45955 19.3289L8.27555 19.7849L8.76338 18.912ZM7.94738 18.456V19.456H20.8114V18.456V17.456H7.94738V18.456ZM20.8114 18.456H19.8114V21H20.8114H21.8114V18.456H20.8114ZM20.8114 21V20H5.06738V21V22H20.8114V21ZM29.5682 26.52L28.6917 26.0386L27.8781 27.52H29.5682V26.52ZM32.7842 20.664L33.7841 20.6513L33.736 16.8534L31.9077 20.1826L32.7842 20.664ZM32.8082 22.56L31.9292 23.0368L33.8081 22.5473L32.8082 22.56ZM25.1282 8.4V7.4H23.4482L24.2492 8.87676L25.1282 8.4ZM28.0322 8.4L28.9225 7.94468L28.644 7.4H28.0322V8.4ZM31.8002 15.768L30.9099 16.2233L30.9142 16.2318L30.9187 16.2402L31.8002 15.768ZM33.0242 18.216L32.1145 18.6313L32.12 18.6433L32.1258 18.6552L33.0242 18.216ZM33.7202 20.136L33.7867 21.1338L34.9244 21.0579L34.7008 19.9399L33.7202 20.136ZM33.3602 20.16L32.4261 19.8029L31.8684 21.2617L33.4267 21.1578L33.3602 20.16ZM34.1522 18.216L35.0723 18.6076L35.0723 18.6076L34.1522 18.216ZM35.3282 15.72L36.2195 16.1735L36.2243 16.1639L36.229 16.1542L35.3282 15.72ZM38.8562 8.4V7.4H38.2281L37.9554 7.96583L38.8562 8.4ZM41.7602 8.4L42.6444 8.86712L43.4195 7.4H41.7602V8.4ZM35.0402 21.12L34.156 20.6529L34.1546 20.6556L35.0402 21.12ZM32.2082 26.52V27.52H32.8129L33.0938 26.9844L32.2082 26.52ZM29.5682 26.52L30.4447 27.0014L33.6607 21.1454L32.7842 20.664L31.9077 20.1826L28.6917 26.0386L29.5682 26.52ZM32.7842 20.664L31.7843 20.6767L31.8083 22.5727L32.8082 22.56L33.8081 22.5473L33.7841 20.6513L32.7842 20.664ZM32.8082 22.56L33.6872 22.0832L26.0072 7.92324L25.1282 8.4L24.2492 8.87676L31.9292 23.0368L32.8082 22.56ZM25.1282 8.4V9.4H28.0322V8.4V7.4H25.1282V8.4ZM28.0322 8.4L27.1419 8.85531L30.9099 16.2233L31.8002 15.768L32.6905 15.3127L28.9225 7.94468L28.0322 8.4ZM31.8002 15.768L30.9187 16.2402C31.3911 17.122 31.7892 17.9187 32.1145 18.6313L33.0242 18.216L33.9339 17.8007C33.5872 17.0413 33.1693 16.206 32.6817 15.2958L31.8002 15.768ZM33.0242 18.216L32.1258 18.6552C32.454 19.3265 32.6497 19.8826 32.7396 20.3321L33.7202 20.136L34.7008 19.9399C34.5667 19.2694 34.2984 18.5455 33.9226 17.7768L33.0242 18.216ZM33.7202 20.136L33.6537 19.1382L33.2937 19.1622L33.3602 20.16L33.4267 21.1578L33.7867 21.1338L33.7202 20.136ZM33.3602 20.16L34.2942 20.5171C34.4965 19.9882 34.7554 19.3523 35.0723 18.6076L34.1522 18.216L33.232 17.8244C32.909 18.5837 32.6399 19.2438 32.4261 19.8029L33.3602 20.16ZM34.1522 18.216L35.0723 18.6076C35.3815 17.8809 35.7634 17.07 36.2195 16.1735L35.3282 15.72L34.4369 15.2665C33.965 16.194 33.5628 17.0471 33.232 17.8244L34.1522 18.216ZM35.3282 15.72L36.229 16.1542L39.757 8.83417L38.8562 8.4L37.9554 7.96583L34.4274 15.2858L35.3282 15.72ZM38.8562 8.4V9.4H41.7602V8.4V7.4H38.8562V8.4ZM41.7602 8.4L40.876 7.93288L34.156 20.6529L35.0402 21.12L35.9244 21.5871L42.6444 8.86712L41.7602 8.4ZM35.0402 21.12L34.1546 20.6556L31.3226 26.0556L32.2082 26.52L33.0938 26.9844L35.9258 21.5844L35.0402 21.12ZM32.2082 26.52V25.52H29.5682V26.52V27.52H32.2082V26.52ZM49.5201 20.4L49.9831 19.5137L49.9831 19.5137L49.5201 20.4ZM47.0241 18.072L46.1592 18.5742L46.1653 18.5845L47.0241 18.072ZM47.0721 11.304L46.2256 10.7715L46.2233 10.7753L47.0721 11.304ZM49.6641 8.976L49.2117 8.08417L49.2117 8.08417L49.6641 8.976ZM55.8561 8.448L55.5841 9.41032L55.5895 9.41181L55.8561 8.448ZM57.8241 9.288L58.3562 8.44136L58.3562 8.44136L57.8241 9.288ZM59.1201 10.44L58.3127 11.03L58.3256 11.0476L58.3392 11.0647L59.1201 10.44ZM59.6241 11.664V12.664H60.6633L60.6233 11.6256L59.6241 11.664ZM58.9281 11.664H57.9281V12.664H58.9281V11.664ZM58.9281 8.4V7.4H57.9281V8.4H58.9281ZM61.4001 8.4H62.4001V7.4H61.4001V8.4ZM61.4001 21V22H62.4001V21H61.4001ZM58.9281 21H57.9281V22H58.9281V21ZM58.9281 17.616L59.1597 16.6432L57.9281 16.35V17.616H58.9281ZM59.4321 17.736L60.4312 17.7776L60.4655 16.9541L59.6637 16.7632L59.4321 17.736ZM58.8801 18.936L58.1167 18.2901L58.1144 18.2928L58.8801 18.936ZM57.5121 20.064L56.9906 19.2107L56.9799 19.2174L57.5121 20.064ZM55.5681 20.928L55.84 21.8903L55.8497 21.8876L55.8592 21.8847L55.5681 20.928ZM56.5521 18.408L56.977 19.3132L56.9845 19.3097L56.9919 19.3061L56.5521 18.408ZM58.3761 16.872L59.205 17.4315L59.2112 17.422L58.3761 16.872ZM56.5521 11.016L56.1122 11.9141L56.1196 11.9177L56.1272 11.9212L56.5521 11.016ZM51.1521 11.016L51.5842 11.9178L51.5919 11.9141L51.1521 11.016ZM49.3281 12.528L48.5088 11.9545L48.504 11.9615L48.4992 11.9685L49.3281 12.528ZM49.3281 16.872L48.4929 17.422L48.5007 17.4338L48.5088 17.4455L49.3281 16.872ZM51.1521 18.408L50.7048 19.3024L50.7159 19.308L50.7272 19.3132L51.1521 18.408ZM53.2641 21.24V20.24C51.9727 20.24 50.8888 19.9868 49.9831 19.5137L49.5201 20.4L49.057 21.2863C50.2953 21.9332 51.7074 22.24 53.2641 22.24V21.24ZM49.5201 20.4L49.9831 19.5137C49.067 19.0351 48.3754 18.3851 47.8828 17.5595L47.0241 18.072L46.1653 18.5845C46.8567 19.7429 47.8292 20.6449 49.057 21.2863L49.5201 20.4ZM47.0241 18.072L47.8889 17.5699C47.4102 16.7456 47.1601 15.7941 47.1601 14.688H46.1601H45.1601C45.1601 16.1099 45.4859 17.4144 46.1593 18.5741L47.0241 18.072ZM46.1601 14.688H47.1601C47.1601 13.5731 47.4226 12.6326 47.9208 11.8327L47.0721 11.304L46.2233 10.7753C45.5055 11.9274 45.1601 13.2429 45.1601 14.688H46.1601ZM47.0721 11.304L47.9185 11.8365C48.4406 11.0065 49.1644 10.3507 50.1164 9.86783L49.6641 8.976L49.2117 8.08417C47.9557 8.72127 46.9515 9.61754 46.2256 10.7715L47.0721 11.304ZM49.6641 8.976L50.1164 9.86783C51.0621 9.38817 52.1595 9.136 53.4321 9.136V8.136V7.136C51.8886 7.136 50.4741 7.44383 49.2117 8.08417L49.6641 8.976ZM53.4321 8.136V9.136C54.2336 9.136 54.9487 9.23074 55.5841 9.41031L55.8561 8.448L56.128 7.48569C55.2914 7.24925 54.3905 7.136 53.4321 7.136V8.136ZM55.8561 8.448L55.5895 9.41181C56.2641 9.5984 56.8275 9.84271 57.2919 10.1346L57.8241 9.288L58.3562 8.44136C57.7007 8.02928 56.9521 7.7136 56.1226 7.48419L55.8561 8.448ZM57.8241 9.288L57.2919 10.1346C57.7738 10.4375 58.1012 10.7407 58.3127 11.03L59.1201 10.44L59.9275 9.84998C59.5309 9.30734 58.9943 8.84246 58.3562 8.44136L57.8241 9.288ZM59.1201 10.44L58.3392 11.0647C58.5569 11.3369 58.6188 11.5454 58.6248 11.7024L59.6241 11.664L60.6233 11.6256C60.5974 10.9506 60.3232 10.3431 59.9009 9.8153L59.1201 10.44ZM59.6241 11.664V10.664H58.9281V11.664V12.664H59.6241V11.664ZM58.9281 11.664H59.9281V8.4H58.9281H57.9281V11.664H58.9281ZM58.9281 8.4V9.4H61.4001V8.4V7.4H58.9281V8.4ZM61.4001 8.4H60.4001V21H61.4001H62.4001V8.4H61.4001ZM61.4001 21V20H58.9281V21V22H61.4001V21ZM58.9281 21H59.9281V17.616H58.9281H57.9281V21H58.9281ZM58.9281 17.616L58.6964 18.5888L59.2004 18.7088L59.4321 17.736L59.6637 16.7632L59.1597 16.6432L58.9281 17.616ZM59.4321 17.736L58.4329 17.6944C58.4294 17.7802 58.3836 17.9746 58.1167 18.2901L58.8801 18.936L59.6434 19.5819C60.0805 19.0654 60.4028 18.4598 60.4312 17.7776L59.4321 17.736ZM58.8801 18.936L58.1144 18.2928C57.8648 18.5899 57.4999 18.8995 56.9906 19.2107L57.5121 20.064L58.0335 20.9173C58.6762 20.5245 59.2233 20.0821 59.6458 19.5792L58.8801 18.936ZM57.5121 20.064L56.9799 19.2174C56.506 19.5152 55.9415 19.7691 55.2769 19.9713L55.5681 20.928L55.8592 21.8847C56.6666 21.6389 57.3981 21.3168 58.0442 20.9106L57.5121 20.064ZM55.5681 20.928L55.2961 19.9657C54.6526 20.1476 53.9763 20.24 53.2641 20.24V21.24V22.24C54.1518 22.24 55.0115 22.1244 55.84 21.8903L55.5681 20.928ZM53.8401 18.96V19.96C54.9844 19.96 56.0379 19.754 56.977 19.3132L56.5521 18.408L56.1272 17.5028C55.4982 17.798 54.7437 17.96 53.8401 17.96V18.96ZM56.5521 18.408L56.9919 19.3061C57.9121 18.8554 58.6628 18.2345 59.2049 17.4315L58.3761 16.872L57.5472 16.3125C57.2253 16.7895 56.7601 17.1926 56.1122 17.5099L56.5521 18.408ZM58.3761 16.872L59.2112 17.422C59.7529 16.5995 60.0241 15.6797 60.0241 14.688H59.0241H58.0241C58.0241 15.2963 57.8633 15.8325 57.5409 16.322L58.3761 16.872ZM59.0241 14.688H60.0241C60.0241 13.6962 59.7527 12.78 59.2049 11.9685L58.3761 12.528L57.5472 13.0875C57.8635 13.556 58.0241 14.0798 58.0241 14.688H59.0241ZM58.3761 12.528L59.2049 11.9685C58.6601 11.1613 57.904 10.5459 56.977 10.1108L56.5521 11.016L56.1272 11.9212C56.7681 12.2221 57.2281 12.6147 57.5472 13.0875L58.3761 12.528ZM56.5521 11.016L56.9919 10.1179C56.0492 9.6562 54.9903 9.44 53.8401 9.44V10.44V11.44C54.7378 11.44 55.4869 11.6078 56.1122 11.9141L56.5521 11.016ZM53.8401 10.44V9.44C52.7032 9.44 51.6528 9.65721 50.7122 10.1179L51.1521 11.016L51.5919 11.9141C52.2193 11.6068 52.961 11.44 53.8401 11.44V10.44ZM51.1521 11.016L50.7199 10.1142C49.8112 10.5496 49.0642 11.1611 48.5088 11.9545L49.3281 12.528L50.1473 13.1015C50.4879 12.6149 50.9569 12.2184 51.5842 11.9178L51.1521 11.016ZM49.3281 12.528L48.4992 11.9685C47.9515 12.78 47.6801 13.6962 47.6801 14.688H48.6801H49.6801C49.6801 14.0798 49.8406 13.556 50.1569 13.0875L49.3281 12.528ZM48.6801 14.688H47.6801C47.6801 15.6797 47.9513 16.5995 48.4929 17.422L49.3281 16.872L50.1632 16.322C49.8409 15.8325 49.6801 15.2963 49.6801 14.688H48.6801ZM49.3281 16.872L48.5088 17.4455C49.0614 18.2349 49.8031 18.8516 50.7048 19.3024L51.1521 18.408L51.5993 17.5136C50.965 17.1964 50.4907 16.7891 50.1473 16.2985L49.3281 16.872ZM51.1521 18.408L50.7272 19.3132C51.6642 19.7531 52.7091 19.96 53.8401 19.96V18.96V17.96C52.955 17.96 52.2079 17.7989 51.577 17.5028L51.1521 18.408ZM71.9136 21H70.9136V22H71.9136V21ZM71.9136 4.608V3.608H70.9136V4.608H71.9136ZM74.3856 4.608H75.3856V3.608H74.3856V4.608ZM74.3856 21V22H75.3856V21H74.3856ZM68.1456 10.8H67.1456V11.8H68.1456V10.8ZM68.1456 8.4V7.4H67.1456V8.4H68.1456ZM78.8496 8.4H79.8496V7.4H78.8496V8.4ZM78.8496 10.8V11.8H79.8496V10.8H78.8496ZM71.9136 21H72.9136V4.608H71.9136H70.9136V21H71.9136ZM71.9136 4.608V5.608H74.3856V4.608V3.608H71.9136V4.608ZM74.3856 4.608H73.3856V21H74.3856H75.3856V4.608H74.3856ZM74.3856 21V20H71.9136V21V22H74.3856V21ZM68.1456 10.8H69.1456V8.4H68.1456H67.1456V10.8H68.1456ZM68.1456 8.4V9.4H78.8496V8.4V7.4H68.1456V8.4ZM78.8496 8.4H77.8496V10.8H78.8496H79.8496V8.4H78.8496ZM78.8496 10.8V9.8H68.1456V10.8V11.8H78.8496V10.8ZM86.3803 21H85.3803V22H86.3803V21ZM86.3803 8.4V7.4H85.3803V8.4H86.3803ZM88.8763 8.4H89.8763V7.4H88.8763V8.4ZM88.8763 12.864L88.4291 13.7584L89.8763 14.482V12.864H88.8763ZM88.2523 12.552L87.2929 12.2698L87.0569 13.0723L87.8051 13.4464L88.2523 12.552ZM89.4523 10.344L90.2129 10.9933L90.2205 10.9842L89.4523 10.344ZM91.3963 8.736L90.9188 7.85737L90.9188 7.85737L91.3963 8.736ZM95.2123 8.304L94.992 9.27946L94.9986 9.2809L95.2123 8.304ZM96.3883 8.76L97.3579 9.00467L97.5259 8.33896L96.965 7.94303L96.3883 8.76ZM95.7403 11.328L95.2584 12.2042L96.3931 12.8283L96.7099 11.5727L95.7403 11.328ZM94.5643 10.896L94.3218 11.8662L94.3297 11.8681L94.5643 10.896ZM91.4683 11.088L91.8589 12.0086L91.8654 12.0058L91.872 12.0029L91.4683 11.088ZM90.0763 11.976L89.3993 11.2401L89.3918 11.247L89.3844 11.254L90.0763 11.976ZM89.1883 13.224L90.0954 13.6451L90.1008 13.6331L89.1883 13.224ZM88.8763 21V22H89.8763V21H88.8763ZM86.3803 21H87.3803V8.4H86.3803H85.3803V21H86.3803ZM86.3803 8.4V9.4H88.8763V8.4V7.4H86.3803V8.4ZM88.8763 8.4H87.8763V12.864H88.8763H89.8763V8.4H88.8763ZM88.8763 12.864L89.3235 11.9696L88.6995 11.6576L88.2523 12.552L87.8051 13.4464L88.4291 13.7584L88.8763 12.864ZM88.2523 12.552L89.2117 12.8342C89.4114 12.1551 89.7429 11.5438 90.2129 10.9933L89.4523 10.344L88.6917 9.69474C88.0417 10.4562 87.5732 11.3169 87.2929 12.2698L88.2523 12.552ZM89.4523 10.344L90.2205 10.9842C90.7032 10.405 91.2538 9.95158 91.8738 9.61462L91.3963 8.736L90.9188 7.85737C90.0668 8.32042 89.3214 8.93904 88.6841 9.70381L89.4523 10.344ZM91.3963 8.736L91.8738 9.61462C92.4736 9.28866 93.0705 9.136 93.6763 9.136V8.136V7.136C92.7141 7.136 91.791 7.38334 90.9188 7.85737L91.3963 8.736ZM93.6763 8.136V9.136C94.1331 9.136 94.5711 9.18438 94.9921 9.27944L95.2123 8.304L95.4326 7.32856C94.8616 7.19962 94.2756 7.136 93.6763 7.136V8.136ZM95.2123 8.304L94.9986 9.2809C95.4468 9.37893 95.6933 9.49341 95.8116 9.57697L96.3883 8.76L96.965 7.94303C96.5394 7.64259 96.0019 7.45307 95.426 7.3271L95.2123 8.304ZM96.3883 8.76L95.4187 8.51533L94.7707 11.0833L95.7403 11.328L96.7099 11.5727L97.3579 9.00467L96.3883 8.76ZM95.7403 11.328L96.2222 10.4518C95.8048 10.2222 95.3244 10.0508 94.799 9.92392L94.5643 10.896L94.3297 11.8681C94.7322 11.9652 95.0358 12.0818 95.2584 12.2042L95.7403 11.328ZM94.5643 10.896L94.8068 9.92586C94.2881 9.79617 93.7745 9.728 93.2683 9.728V10.728V11.728C93.5941 11.728 93.9445 11.7718 94.3218 11.8661L94.5643 10.896ZM93.2683 10.728V9.728C92.4878 9.728 91.7484 9.87142 91.0647 10.1731L91.4683 11.088L91.872 12.0029C92.2762 11.8246 92.7369 11.728 93.2683 11.728V10.728ZM91.4683 11.088L91.0778 10.1674C90.4503 10.4336 89.8881 10.7904 89.3993 11.2401L90.0763 11.976L90.7534 12.7119C91.0646 12.4256 91.4304 12.1904 91.8589 12.0086L91.4683 11.088ZM90.0763 11.976L89.3844 11.254C88.9118 11.707 88.5389 12.228 88.2758 12.8149L89.1883 13.224L90.1008 13.6331C90.2537 13.292 90.4729 12.981 90.7682 12.698L90.0763 11.976ZM89.1883 13.224L88.2813 12.8029C88.0139 13.3789 87.8763 13.9863 87.8763 14.616H88.8763H89.8763C89.8763 14.2857 89.9467 13.9651 90.0953 13.6451L89.1883 13.224ZM88.8763 14.616H87.8763V21H88.8763H89.8763V14.616H88.8763ZM88.8763 21V20H86.3803V21V22H88.8763V21ZM104.059 20.4L104.522 19.5137L104.522 19.5137L104.059 20.4ZM101.563 18.072L100.698 18.5742L100.704 18.5845L101.563 18.072ZM101.611 11.304L100.765 10.7715L100.762 10.7753L101.611 11.304ZM104.203 8.976L103.751 8.08417L103.751 8.08417L104.203 8.976ZM110.395 8.448L110.123 9.41032L110.129 9.41181L110.395 8.448ZM112.363 9.288L112.895 8.44136L112.895 8.44136L112.363 9.288ZM113.659 10.44L112.852 11.03L112.865 11.0476L112.878 11.0647L113.659 10.44ZM114.163 11.664V12.664H115.202L115.162 11.6256L114.163 11.664ZM113.467 11.664H112.467V12.664H113.467V11.664ZM113.467 8.4V7.4H112.467V8.4H113.467ZM115.939 8.4H116.939V7.4H115.939V8.4ZM115.939 21V22H116.939V21H115.939ZM113.467 21H112.467V22H113.467V21ZM113.467 17.616L113.699 16.6432L112.467 16.35V17.616H113.467ZM113.971 17.736L114.97 17.7776L115.005 16.9541L114.203 16.7632L113.971 17.736ZM113.419 18.936L112.656 18.2901L112.653 18.2928L113.419 18.936ZM112.051 20.064L111.53 19.2107L111.519 19.2174L112.051 20.064ZM110.107 20.928L110.379 21.8903L110.389 21.8876L110.398 21.8847L110.107 20.928ZM111.091 18.408L111.516 19.3132L111.524 19.3097L111.531 19.3061L111.091 18.408ZM112.915 16.872L113.744 17.4315L113.75 17.422L112.915 16.872ZM111.091 11.016L110.651 11.9141L110.659 11.9177L110.666 11.9212L111.091 11.016ZM105.691 11.016L106.123 11.9178L106.131 11.9141L105.691 11.016ZM103.867 12.528L103.048 11.9545L103.043 11.9615L103.038 11.9685L103.867 12.528ZM103.867 16.872L103.032 17.422L103.04 17.4338L103.048 17.4455L103.867 16.872ZM105.691 18.408L105.244 19.3024L105.255 19.308L105.266 19.3132L105.691 18.408ZM107.803 21.24V20.24C106.512 20.24 105.428 19.9868 104.522 19.5137L104.059 20.4L103.596 21.2863C104.834 21.9332 106.246 22.24 107.803 22.24V21.24ZM104.059 20.4L104.522 19.5137C103.606 19.0351 102.915 18.3851 102.422 17.5595L101.563 18.072L100.704 18.5845C101.396 19.7429 102.368 20.6449 103.596 21.2863L104.059 20.4ZM101.563 18.072L102.428 17.5699C101.949 16.7456 101.699 15.7941 101.699 14.688H100.699H99.6991C99.6991 16.1099 100.025 17.4144 100.698 18.5741L101.563 18.072ZM100.699 14.688H101.699C101.699 13.5731 101.962 12.6326 102.46 11.8327L101.611 11.304L100.762 10.7753C100.045 11.9274 99.6991 13.2429 99.6991 14.688H100.699ZM101.611 11.304L102.458 11.8365C102.98 11.0065 103.704 10.3507 104.656 9.86783L104.203 8.976L103.751 8.08417C102.495 8.72127 101.491 9.61754 100.765 10.7715L101.611 11.304ZM104.203 8.976L104.656 9.86783C105.601 9.38817 106.699 9.136 107.971 9.136V8.136V7.136C106.428 7.136 105.013 7.44383 103.751 8.08417L104.203 8.976ZM107.971 8.136V9.136C108.773 9.136 109.488 9.23074 110.123 9.41031L110.395 8.448L110.667 7.48569C109.83 7.24925 108.93 7.136 107.971 7.136V8.136ZM110.395 8.448L110.129 9.41181C110.803 9.5984 111.367 9.84271 111.831 10.1346L112.363 9.288L112.895 8.44136C112.24 8.02928 111.491 7.7136 110.662 7.48419L110.395 8.448ZM112.363 9.288L111.831 10.1346C112.313 10.4375 112.64 10.7407 112.852 11.03L113.659 10.44L114.467 9.84998C114.07 9.30734 113.533 8.84246 112.895 8.44136L112.363 9.288ZM113.659 10.44L112.878 11.0647C113.096 11.3369 113.158 11.5454 113.164 11.7024L114.163 11.664L115.162 11.6256C115.136 10.9506 114.862 10.3431 114.44 9.8153L113.659 10.44ZM114.163 11.664V10.664H113.467V11.664V12.664H114.163V11.664ZM113.467 11.664H114.467V8.4H113.467H112.467V11.664H113.467ZM113.467 8.4V9.4H115.939V8.4V7.4H113.467V8.4ZM115.939 8.4H114.939V21H115.939H116.939V8.4H115.939ZM115.939 21V20H113.467V21V22H115.939V21ZM113.467 21H114.467V17.616H113.467H112.467V21H113.467ZM113.467 17.616L113.236 18.5888L113.74 18.7088L113.971 17.736L114.203 16.7632L113.699 16.6432L113.467 17.616ZM113.971 17.736L112.972 17.6944C112.968 17.7802 112.923 17.9746 112.656 18.2901L113.419 18.936L114.183 19.5819C114.62 19.0654 114.942 18.4598 114.97 17.7776L113.971 17.736ZM113.419 18.936L112.653 18.2928C112.404 18.5899 112.039 18.8995 111.53 19.2107L112.051 20.064L112.573 20.9173C113.215 20.5245 113.762 20.0821 114.185 19.5792L113.419 18.936ZM112.051 20.064L111.519 19.2174C111.045 19.5152 110.481 19.7691 109.816 19.9713L110.107 20.928L110.398 21.8847C111.206 21.6389 111.937 21.3168 112.583 20.9106L112.051 20.064ZM110.107 20.928L109.835 19.9657C109.192 20.1476 108.515 20.24 107.803 20.24V21.24V22.24C108.691 22.24 109.551 22.1244 110.379 21.8903L110.107 20.928ZM108.379 18.96V19.96C109.523 19.96 110.577 19.754 111.516 19.3132L111.091 18.408L110.666 17.5028C110.037 17.798 109.283 17.96 108.379 17.96V18.96ZM111.091 18.408L111.531 19.3061C112.451 18.8554 113.202 18.2345 113.744 17.4315L112.915 16.872L112.086 16.3125C111.764 16.7895 111.299 17.1926 110.651 17.5099L111.091 18.408ZM112.915 16.872L113.75 17.422C114.292 16.5995 114.563 15.6797 114.563 14.688H113.563H112.563C112.563 15.2963 112.402 15.8325 112.08 16.322L112.915 16.872ZM113.563 14.688H114.563C114.563 13.6962 114.292 12.78 113.744 11.9685L112.915 12.528L112.086 13.0875C112.403 13.556 112.563 14.0798 112.563 14.688H113.563ZM112.915 12.528L113.744 11.9685C113.199 11.1613 112.443 10.5459 111.516 10.1108L111.091 11.016L110.666 11.9212C111.307 12.2221 111.767 12.6147 112.086 13.0875L112.915 12.528ZM111.091 11.016L111.531 10.1179C110.588 9.6562 109.529 9.44 108.379 9.44V10.44V11.44C109.277 11.44 110.026 11.6078 110.651 11.9141L111.091 11.016ZM108.379 10.44V9.44C107.242 9.44 106.192 9.65721 105.251 10.1179L105.691 11.016L106.131 11.9141C106.758 11.6068 107.5 11.44 108.379 11.44V10.44ZM105.691 11.016L105.259 10.1142C104.35 10.5496 103.603 11.1611 103.048 11.9545L103.867 12.528L104.686 13.1015C105.027 12.6149 105.496 12.2184 106.123 11.9178L105.691 11.016ZM103.867 12.528L103.038 11.9685C102.491 12.78 102.219 13.6962 102.219 14.688H103.219H104.219C104.219 14.0798 104.38 13.556 104.696 13.0875L103.867 12.528ZM103.219 14.688H102.219C102.219 15.6797 102.49 16.5995 103.032 17.422L103.867 16.872L104.702 16.322C104.38 15.8325 104.219 15.2963 104.219 14.688H103.219ZM103.867 16.872L103.048 17.4455C103.6 18.2349 104.342 18.8516 105.244 19.3024L105.691 18.408L106.138 17.5136C105.504 17.1964 105.03 16.7891 104.686 16.2985L103.867 16.872ZM105.691 18.408L105.266 19.3132C106.203 19.7531 107.248 19.96 108.379 19.96V18.96V17.96C107.494 17.96 106.747 17.7989 106.116 17.5028L105.691 18.408Z" fill="black" mask="url(#path-1-outside-1_8_2)"/>
</g>
<defs>
<filter id="filter0_dd_8_2" x="0.0673828" y="0.199997" width="120.872" height="32.32" filterUnits="userSpaceOnUse" color-interpolation-filters="sRGB">
<feFlood flood-opacity="0" result="BackgroundImageFix"/>
<feColorMatrix in="SourceAlpha" type="matrix" values="0 0 0 0 0 0 0 0 0 0 0 0 0 0 0 0 0 0 127 0" result="hardAlpha"/>
<feOffset dy="1"/>
<feGaussianBlur stdDeviation="2"/>
<feComposite in2="hardAlpha" operator="out"/>
<feColorMatrix type="matrix" values="0 0 0 0 0.0470588 0 0 0 0 0.0470588 0 0 0 0 0.0509804 0 0 0 0.05 0"/>
<feBlend mode="normal" in2="BackgroundImageFix" result="effect1_dropShadow_8_2"/>
<feColorMatrix in="SourceAlpha" type="matrix" values="0 0 0 0 0 0 0 0 0 0 0 0 0 0 0 0 0 0 127 0" result="hardAlpha"/>
<feOffset dy="1"/>
<feGaussianBlur stdDeviation="2"/>
<feComposite in2="hardAlpha" operator="out"/>
<feColorMatrix type="matrix" values="0 0 0 0 0.0470588 0 0 0 0 0.0470588 0 0 0 0 0.0509804 0 0 0 0.1 0"/>
<feBlend mode="normal" in2="effect1_dropShadow_8_2" result="effect2_dropShadow_8_2"/>
<feBlend mode="normal" in="SourceGraphic" in2="effect2_dropShadow_8_2" result="shape"/>
</filter>
</defs>
</svg>
