<svg width="122" height="33" viewBox="0 0 122 33" fill="none" xmlns="http://www.w3.org/2000/svg">
<g style="mix-blend-mode:darken" opacity="0.8" filter="url(#filter0_dd_12_2)">
<mask id="path-1-outside-1_12_2" maskUnits="userSpaceOnUse" x="4" y="3" width="114" height="25" fill="black">
<rect fill="white" x="4" y="3" width="114" height="25"/>
<path d="M5.56738 21V19.104L17.3754 6.288L18.1914 6.744H6.19138V4.2H21.0474V6.072L9.26338 18.912L8.44738 18.456H21.3114V21H5.56738ZM30.0682 26.52L33.2842 20.664L33.3082 22.56L25.6282 8.4H28.5322L32.3002 15.768C32.7802 16.664 33.1882 17.48 33.5242 18.216C33.8762 18.936 34.1082 19.576 34.2202 20.136L33.8602 20.16C34.0682 19.616 34.3322 18.968 34.6522 18.216C34.9722 17.464 35.3642 16.632 35.8282 15.72L39.3562 8.4H42.2602L35.5402 21.12L32.7082 26.52H30.0682ZM53.7641 21.24C52.3401 21.24 51.0921 20.96 50.0201 20.4C48.9481 19.84 48.1161 19.064 47.5241 18.072C46.9481 17.08 46.6601 15.952 46.6601 14.688C46.6601 13.408 46.9641 12.28 47.5721 11.304C48.1961 10.312 49.0601 9.536 50.1641 8.976C51.2681 8.416 52.5241 8.136 53.9321 8.136C54.8121 8.136 55.6201 8.24 56.3561 8.448C57.1081 8.656 57.7641 8.936 58.3241 9.288C58.8841 9.64 59.3161 10.024 59.6201 10.44C59.9401 10.84 60.1081 11.248 60.1241 11.664H59.4281V8.4H61.9001V21H59.4281V17.616L59.9321 17.736C59.9161 18.12 59.7321 18.52 59.3801 18.936C59.0441 19.336 58.5881 19.712 58.0121 20.064C57.4521 20.416 56.8041 20.704 56.0681 20.928C55.3321 21.136 54.5641 21.24 53.7641 21.24ZM54.3401 18.96C55.3641 18.96 56.2681 18.776 57.0521 18.408C57.8361 18.024 58.4441 17.512 58.8761 16.872C59.3081 16.216 59.5241 15.488 59.5241 14.688C59.5241 13.888 59.3081 13.168 58.8761 12.528C58.4441 11.888 57.8361 11.384 57.0521 11.016C56.2681 10.632 55.3641 10.44 54.3401 10.44C53.3321 10.44 52.4361 10.632 51.6521 11.016C50.8841 11.384 50.2761 11.888 49.8281 12.528C49.3961 13.168 49.1801 13.888 49.1801 14.688C49.1801 15.488 49.3961 16.216 49.8281 16.872C50.2761 17.512 50.8841 18.024 51.6521 18.408C52.4361 18.776 53.3321 18.96 54.3401 18.96ZM72.4136 21V4.608H74.8856V21H72.4136ZM68.6456 10.8V8.4H79.3496V10.8H68.6456ZM86.8803 21V8.4H89.3763V12.864L88.7523 12.552C88.9923 11.736 89.3923 11 89.9523 10.344C90.5123 9.672 91.1603 9.136 91.8963 8.736C92.6323 8.336 93.3923 8.136 94.1763 8.136C94.7043 8.136 95.2163 8.192 95.7123 8.304C96.2243 8.416 96.6163 8.568 96.8883 8.76L96.2403 11.328C95.9203 11.152 95.5283 11.008 95.0643 10.896C94.6163 10.784 94.1843 10.728 93.7683 10.728C93.1123 10.728 92.5123 10.848 91.9683 11.088C91.4403 11.312 90.9763 11.608 90.5763 11.976C90.1923 12.344 89.8963 12.76 89.6883 13.224C89.4803 13.672 89.3763 14.136 89.3763 14.616V21H86.8803ZM108.303 21.24C106.879 21.24 105.631 20.96 104.559 20.4C103.487 19.84 102.655 19.064 102.063 18.072C101.487 17.08 101.199 15.952 101.199 14.688C101.199 13.408 101.503 12.28 102.111 11.304C102.735 10.312 103.599 9.536 104.703 8.976C105.807 8.416 107.063 8.136 108.471 8.136C109.351 8.136 110.159 8.24 110.895 8.448C111.647 8.656 112.303 8.936 112.863 9.288C113.423 9.64 113.855 10.024 114.159 10.44C114.479 10.84 114.647 11.248 114.663 11.664H113.967V8.4H116.439V21H113.967V17.616L114.471 17.736C114.455 18.12 114.271 18.52 113.919 18.936C113.583 19.336 113.127 19.712 112.551 20.064C111.991 20.416 111.343 20.704 110.607 20.928C109.871 21.136 109.103 21.24 108.303 21.24ZM108.879 18.96C109.903 18.96 110.807 18.776 111.591 18.408C112.375 18.024 112.983 17.512 113.415 16.872C113.847 16.216 114.063 15.488 114.063 14.688C114.063 13.888 113.847 13.168 113.415 12.528C112.983 11.888 112.375 11.384 111.591 11.016C110.807 10.632 109.903 10.44 108.879 10.44C107.871 10.44 106.975 10.632 106.191 11.016C105.423 11.384 104.815 11.888 104.367 12.528C103.935 13.168 103.719 13.888 103.719 14.688C103.719 15.488 103.935 16.216 104.367 16.872C104.815 17.512 105.423 18.024 106.191 18.408C106.975 18.776 107.871 18.96 108.879 18.96Z"/>
</mask>
<path d="M5.56738 21V19.104L17.3754 6.288L18.1914 6.744H6.19138V4.2H21.0474V6.072L9.26338 18.912L8.44738 18.456H21.3114V21H5.56738ZM30.0682 26.52L33.2842 20.664L33.3082 22.56L25.6282 8.4H28.5322L32.3002 15.768C32.7802 16.664 33.1882 17.48 33.5242 18.216C33.8762 18.936 34.1082 19.576 34.2202 20.136L33.8602 20.16C34.0682 19.616 34.3322 18.968 34.6522 18.216C34.9722 17.464 35.3642 16.632 35.8282 15.72L39.3562 8.4H42.2602L35.5402 21.12L32.7082 26.52H30.0682ZM53.7641 21.24C52.3401 21.24 51.0921 20.96 50.0201 20.4C48.9481 19.84 48.1161 19.064 47.5241 18.072C46.9481 17.08 46.6601 15.952 46.6601 14.688C46.6601 13.408 46.9641 12.28 47.5721 11.304C48.1961 10.312 49.0601 9.536 50.1641 8.976C51.2681 8.416 52.5241 8.136 53.9321 8.136C54.8121 8.136 55.6201 8.24 56.3561 8.448C57.1081 8.656 57.7641 8.936 58.3241 9.288C58.8841 9.64 59.3161 10.024 59.6201 10.44C59.9401 10.84 60.1081 11.248 60.1241 11.664H59.4281V8.4H61.9001V21H59.4281V17.616L59.9321 17.736C59.9161 18.12 59.7321 18.52 59.3801 18.936C59.0441 19.336 58.5881 19.712 58.0121 20.064C57.4521 20.416 56.8041 20.704 56.0681 20.928C55.3321 21.136 54.5641 21.24 53.7641 21.24ZM54.3401 18.96C55.3641 18.96 56.2681 18.776 57.0521 18.408C57.8361 18.024 58.4441 17.512 58.8761 16.872C59.3081 16.216 59.5241 15.488 59.5241 14.688C59.5241 13.888 59.3081 13.168 58.8761 12.528C58.4441 11.888 57.8361 11.384 57.0521 11.016C56.2681 10.632 55.3641 10.44 54.3401 10.44C53.3321 10.44 52.4361 10.632 51.6521 11.016C50.8841 11.384 50.2761 11.888 49.8281 12.528C49.3961 13.168 49.1801 13.888 49.1801 14.688C49.1801 15.488 49.3961 16.216 49.8281 16.872C50.2761 17.512 50.8841 18.024 51.6521 18.408C52.4361 18.776 53.3321 18.96 54.3401 18.96ZM72.4136 21V4.608H74.8856V21H72.4136ZM68.6456 10.8V8.4H79.3496V10.8H68.6456ZM86.8803 21V8.4H89.3763V12.864L88.7523 12.552C88.9923 11.736 89.3923 11 89.9523 10.344C90.5123 9.672 91.1603 9.136 91.8963 8.736C92.6323 8.336 93.3923 8.136 94.1763 8.136C94.7043 8.136 95.2163 8.192 95.7123 8.304C96.2243 8.416 96.6163 8.568 96.8883 8.76L96.2403 11.328C95.9203 11.152 95.5283 11.008 95.0643 10.896C94.6163 10.784 94.1843 10.728 93.7683 10.728C93.1123 10.728 92.5123 10.848 91.9683 11.088C91.4403 11.312 90.9763 11.608 90.5763 11.976C90.1923 12.344 89.8963 12.76 89.6883 13.224C89.4803 13.672 89.3763 14.136 89.3763 14.616V21H86.8803ZM108.303 21.24C106.879 21.24 105.631 20.96 104.559 20.4C103.487 19.84 102.655 19.064 102.063 18.072C101.487 17.08 101.199 15.952 101.199 14.688C101.199 13.408 101.503 12.28 102.111 11.304C102.735 10.312 103.599 9.536 104.703 8.976C105.807 8.416 107.063 8.136 108.471 8.136C109.351 8.136 110.159 8.24 110.895 8.448C111.647 8.656 112.303 8.936 112.863 9.288C113.423 9.64 113.855 10.024 114.159 10.44C114.479 10.84 114.647 11.248 114.663 11.664H113.967V8.4H116.439V21H113.967V17.616L114.471 17.736C114.455 18.12 114.271 18.52 113.919 18.936C113.583 19.336 113.127 19.712 112.551 20.064C111.991 20.416 111.343 20.704 110.607 20.928C109.871 21.136 109.103 21.24 108.303 21.24ZM108.879 18.96C109.903 18.96 110.807 18.776 111.591 18.408C112.375 18.024 112.983 17.512 113.415 16.872C113.847 16.216 114.063 15.488 114.063 14.688C114.063 13.888 113.847 13.168 113.415 12.528C112.983 11.888 112.375 11.384 111.591 11.016C110.807 10.632 109.903 10.44 108.879 10.44C107.871 10.44 106.975 10.632 106.191 11.016C105.423 11.384 104.815 11.888 104.367 12.528C103.935 13.168 103.719 13.888 103.719 14.688C103.719 15.488 103.935 16.216 104.367 16.872C104.815 17.512 105.423 18.024 106.191 18.408C106.975 18.776 107.871 18.96 108.879 18.96Z" fill="white"/>
<path d="M5.56738 21V19.104L17.3754 6.288L18.1914 6.744H6.19138V4.2H21.0474V6.072L9.26338 18.912L8.44738 18.456H21.3114V21H5.56738ZM30.0682 26.52L33.2842 20.664L33.3082 22.56L25.6282 8.4H28.5322L32.3002 15.768C32.7802 16.664 33.1882 17.48 33.5242 18.216C33.8762 18.936 34.1082 19.576 34.2202 20.136L33.8602 20.16C34.0682 19.616 34.3322 18.968 34.6522 18.216C34.9722 17.464 35.3642 16.632 35.8282 15.72L39.3562 8.4H42.2602L35.5402 21.12L32.7082 26.52H30.0682ZM53.7641 21.24C52.3401 21.24 51.0921 20.96 50.0201 20.4C48.9481 19.84 48.1161 19.064 47.5241 18.072C46.9481 17.08 46.6601 15.952 46.6601 14.688C46.6601 13.408 46.9641 12.28 47.5721 11.304C48.1961 10.312 49.0601 9.536 50.1641 8.976C51.2681 8.416 52.5241 8.136 53.9321 8.136C54.8121 8.136 55.6201 8.24 56.3561 8.448C57.1081 8.656 57.7641 8.936 58.3241 9.288C58.8841 9.64 59.3161 10.024 59.6201 10.44C59.9401 10.84 60.1081 11.248 60.1241 11.664H59.4281V8.4H61.9001V21H59.4281V17.616L59.9321 17.736C59.9161 18.12 59.7321 18.52 59.3801 18.936C59.0441 19.336 58.5881 19.712 58.0121 20.064C57.4521 20.416 56.8041 20.704 56.0681 20.928C55.3321 21.136 54.5641 21.24 53.7641 21.24ZM54.3401 18.96C55.3641 18.96 56.2681 18.776 57.0521 18.408C57.8361 18.024 58.4441 17.512 58.8761 16.872C59.3081 16.216 59.5241 15.488 59.5241 14.688C59.5241 13.888 59.3081 13.168 58.8761 12.528C58.4441 11.888 57.8361 11.384 57.0521 11.016C56.2681 10.632 55.3641 10.44 54.3401 10.44C53.3321 10.44 52.4361 10.632 51.6521 11.016C50.8841 11.384 50.2761 11.888 49.8281 12.528C49.3961 13.168 49.1801 13.888 49.1801 14.688C49.1801 15.488 49.3961 16.216 49.8281 16.872C50.2761 17.512 50.8841 18.024 51.6521 18.408C52.4361 18.776 53.3321 18.96 54.3401 18.96ZM72.4136 21V4.608H74.8856V21H72.4136ZM68.6456 10.8V8.4H79.3496V10.8H68.6456ZM86.8803 21V8.4H89.3763V12.864L88.7523 12.552C88.9923 11.736 89.3923 11 89.9523 10.344C90.5123 9.672 91.1603 9.136 91.8963 8.736C92.6323 8.336 93.3923 8.136 94.1763 8.136C94.7043 8.136 95.2163 8.192 95.7123 8.304C96.2243 8.416 96.6163 8.568 96.8883 8.76L96.2403 11.328C95.9203 11.152 95.5283 11.008 95.0643 10.896C94.6163 10.784 94.1843 10.728 93.7683 10.728C93.1123 10.728 92.5123 10.848 91.9683 11.088C91.4403 11.312 90.9763 11.608 90.5763 11.976C90.1923 12.344 89.8963 12.76 89.6883 13.224C89.4803 13.672 89.3763 14.136 89.3763 14.616V21H86.8803ZM108.303 21.24C106.879 21.24 105.631 20.96 104.559 20.4C103.487 19.84 102.655 19.064 102.063 18.072C101.487 17.08 101.199 15.952 101.199 14.688C101.199 13.408 101.503 12.28 102.111 11.304C102.735 10.312 103.599 9.536 104.703 8.976C105.807 8.416 107.063 8.136 108.471 8.136C109.351 8.136 110.159 8.24 110.895 8.448C111.647 8.656 112.303 8.936 112.863 9.288C113.423 9.64 113.855 10.024 114.159 10.44C114.479 10.84 114.647 11.248 114.663 11.664H113.967V8.4H116.439V21H113.967V17.616L114.471 17.736C114.455 18.12 114.271 18.52 113.919 18.936C113.583 19.336 113.127 19.712 112.551 20.064C111.991 20.416 111.343 20.704 110.607 20.928C109.871 21.136 109.103 21.24 108.303 21.24ZM108.879 18.96C109.903 18.96 110.807 18.776 111.591 18.408C112.375 18.024 112.983 17.512 113.415 16.872C113.847 16.216 114.063 15.488 114.063 14.688C114.063 13.888 113.847 13.168 113.415 12.528C112.983 11.888 112.375 11.384 111.591 11.016C110.807 10.632 109.903 10.44 108.879 10.44C107.871 10.44 106.975 10.632 106.191 11.016C105.423 11.384 104.815 11.888 104.367 12.528C103.935 13.168 103.719 13.888 103.719 14.688C103.719 15.488 103.935 16.216 104.367 16.872C104.815 17.512 105.423 18.024 106.191 18.408C106.975 18.776 107.871 18.96 108.879 18.96Z" fill="white" fill-opacity="0.2"/>
<path d="M5.56738 21H4.56738V22H5.56738V21ZM5.56738 19.104L4.83194 18.4264L4.56738 18.7136V19.104H5.56738ZM17.3754 6.288L17.8632 5.41506L17.1745 5.0302L16.6399 5.61041L17.3754 6.288ZM18.1914 6.744V7.744H22.0308L18.6792 5.87106L18.1914 6.744ZM6.19138 6.744H5.19138V7.744H6.19138V6.744ZM6.19138 4.2V3.2H5.19138V4.2H6.19138ZM21.0474 4.2H22.0474V3.2H21.0474V4.2ZM21.0474 6.072L21.7841 6.74816L22.0474 6.46132V6.072H21.0474ZM9.26338 18.912L8.77555 19.7849L9.46562 20.1706L10.0001 19.5882L9.26338 18.912ZM8.44738 18.456V17.456H4.60797L7.95955 19.3289L8.44738 18.456ZM21.3114 18.456H22.3114V17.456H21.3114V18.456ZM21.3114 21V22H22.3114V21H21.3114ZM5.56738 21H6.56738V19.104H5.56738H4.56738V21H5.56738ZM5.56738 19.104L6.30281 19.7816L18.1108 6.96559L17.3754 6.288L16.6399 5.61041L4.83194 18.4264L5.56738 19.104ZM17.3754 6.288L16.8876 7.16094L17.7036 7.61694L18.1914 6.744L18.6792 5.87106L17.8632 5.41506L17.3754 6.288ZM18.1914 6.744V5.744H6.19138V6.744V7.744H18.1914V6.744ZM6.19138 6.744H7.19138V4.2H6.19138H5.19138V6.744H6.19138ZM6.19138 4.2V5.2H21.0474V4.2V3.2H6.19138V4.2ZM21.0474 4.2H20.0474V6.072H21.0474H22.0474V4.2H21.0474ZM21.0474 6.072L20.3106 5.39584L8.52662 18.2358L9.26338 18.912L10.0001 19.5882L21.7841 6.74816L21.0474 6.072ZM9.26338 18.912L9.7512 18.0391L8.9352 17.5831L8.44738 18.456L7.95955 19.3289L8.77555 19.7849L9.26338 18.912ZM8.44738 18.456V19.456H21.3114V18.456V17.456H8.44738V18.456ZM21.3114 18.456H20.3114V21H21.3114H22.3114V18.456H21.3114ZM21.3114 21V20H5.56738V21V22H21.3114V21ZM30.0682 26.52L29.1917 26.0386L28.3781 27.52H30.0682V26.52ZM33.2842 20.664L34.2841 20.6513L34.236 16.8534L32.4077 20.1826L33.2842 20.664ZM33.3082 22.56L32.4292 23.0368L34.3081 22.5473L33.3082 22.56ZM25.6282 8.4V7.4H23.9482L24.7492 8.87676L25.6282 8.4ZM28.5322 8.4L29.4225 7.94468L29.144 7.4H28.5322V8.4ZM32.3002 15.768L31.4099 16.2233L31.4142 16.2318L31.4187 16.2402L32.3002 15.768ZM33.5242 18.216L32.6145 18.6313L32.62 18.6433L32.6258 18.6552L33.5242 18.216ZM34.2202 20.136L34.2867 21.1338L35.4244 21.0579L35.2008 19.9399L34.2202 20.136ZM33.8602 20.16L32.9261 19.8029L32.3684 21.2617L33.9267 21.1578L33.8602 20.16ZM34.6522 18.216L35.5723 18.6076L35.5723 18.6076L34.6522 18.216ZM35.8282 15.72L36.7195 16.1735L36.7243 16.1639L36.729 16.1542L35.8282 15.72ZM39.3562 8.4V7.4H38.7281L38.4554 7.96583L39.3562 8.4ZM42.2602 8.4L43.1444 8.86712L43.9195 7.4H42.2602V8.4ZM35.5402 21.12L34.656 20.6529L34.6546 20.6556L35.5402 21.12ZM32.7082 26.52V27.52H33.3129L33.5938 26.9844L32.7082 26.52ZM30.0682 26.52L30.9447 27.0014L34.1607 21.1454L33.2842 20.664L32.4077 20.1826L29.1917 26.0386L30.0682 26.52ZM33.2842 20.664L32.2843 20.6767L32.3083 22.5727L33.3082 22.56L34.3081 22.5473L34.2841 20.6513L33.2842 20.664ZM33.3082 22.56L34.1872 22.0832L26.5072 7.92324L25.6282 8.4L24.7492 8.87676L32.4292 23.0368L33.3082 22.56ZM25.6282 8.4V9.4H28.5322V8.4V7.4H25.6282V8.4ZM28.5322 8.4L27.6419 8.85531L31.4099 16.2233L32.3002 15.768L33.1905 15.3127L29.4225 7.94468L28.5322 8.4ZM32.3002 15.768L31.4187 16.2402C31.8911 17.122 32.2892 17.9187 32.6145 18.6313L33.5242 18.216L34.4339 17.8007C34.0872 17.0413 33.6693 16.206 33.1817 15.2958L32.3002 15.768ZM33.5242 18.216L32.6258 18.6552C32.954 19.3265 33.1497 19.8826 33.2396 20.3321L34.2202 20.136L35.2008 19.9399C35.0667 19.2694 34.7984 18.5455 34.4226 17.7768L33.5242 18.216ZM34.2202 20.136L34.1537 19.1382L33.7937 19.1622L33.8602 20.16L33.9267 21.1578L34.2867 21.1338L34.2202 20.136ZM33.8602 20.16L34.7942 20.5171C34.9965 19.9882 35.2554 19.3523 35.5723 18.6076L34.6522 18.216L33.732 17.8244C33.409 18.5837 33.1399 19.2438 32.9261 19.8029L33.8602 20.16ZM34.6522 18.216L35.5723 18.6076C35.8815 17.8809 36.2634 17.07 36.7195 16.1735L35.8282 15.72L34.9369 15.2665C34.465 16.194 34.0628 17.0471 33.732 17.8244L34.6522 18.216ZM35.8282 15.72L36.729 16.1542L40.257 8.83417L39.3562 8.4L38.4554 7.96583L34.9274 15.2858L35.8282 15.72ZM39.3562 8.4V9.4H42.2602V8.4V7.4H39.3562V8.4ZM42.2602 8.4L41.376 7.93288L34.656 20.6529L35.5402 21.12L36.4244 21.5871L43.1444 8.86712L42.2602 8.4ZM35.5402 21.12L34.6546 20.6556L31.8226 26.0556L32.7082 26.52L33.5938 26.9844L36.4258 21.5844L35.5402 21.12ZM32.7082 26.52V25.52H30.0682V26.52V27.52H32.7082V26.52ZM50.0201 20.4L50.4831 19.5137L50.4831 19.5137L50.0201 20.4ZM47.5241 18.072L46.6592 18.5742L46.6653 18.5845L47.5241 18.072ZM47.5721 11.304L46.7256 10.7715L46.7233 10.7753L47.5721 11.304ZM50.1641 8.976L49.7117 8.08417L49.7117 8.08417L50.1641 8.976ZM56.3561 8.448L56.0841 9.41032L56.0895 9.41181L56.3561 8.448ZM58.3241 9.288L58.8562 8.44136L58.8562 8.44136L58.3241 9.288ZM59.6201 10.44L58.8127 11.03L58.8256 11.0476L58.8392 11.0647L59.6201 10.44ZM60.1241 11.664V12.664H61.1633L61.1233 11.6256L60.1241 11.664ZM59.4281 11.664H58.4281V12.664H59.4281V11.664ZM59.4281 8.4V7.4H58.4281V8.4H59.4281ZM61.9001 8.4H62.9001V7.4H61.9001V8.4ZM61.9001 21V22H62.9001V21H61.9001ZM59.4281 21H58.4281V22H59.4281V21ZM59.4281 17.616L59.6597 16.6432L58.4281 16.35V17.616H59.4281ZM59.9321 17.736L60.9312 17.7776L60.9655 16.9541L60.1637 16.7632L59.9321 17.736ZM59.3801 18.936L58.6167 18.2901L58.6144 18.2928L59.3801 18.936ZM58.0121 20.064L57.4906 19.2107L57.4799 19.2174L58.0121 20.064ZM56.0681 20.928L56.34 21.8903L56.3497 21.8876L56.3592 21.8847L56.0681 20.928ZM57.0521 18.408L57.477 19.3132L57.4845 19.3097L57.4919 19.3061L57.0521 18.408ZM58.8761 16.872L59.705 17.4315L59.7112 17.422L58.8761 16.872ZM57.0521 11.016L56.6122 11.9141L56.6196 11.9177L56.6272 11.9212L57.0521 11.016ZM51.6521 11.016L52.0842 11.9178L52.0919 11.9141L51.6521 11.016ZM49.8281 12.528L49.0088 11.9545L49.004 11.9615L48.9992 11.9685L49.8281 12.528ZM49.8281 16.872L48.9929 17.422L49.0007 17.4338L49.0088 17.4455L49.8281 16.872ZM51.6521 18.408L51.2048 19.3024L51.2159 19.308L51.2272 19.3132L51.6521 18.408ZM53.7641 21.24V20.24C52.4727 20.24 51.3888 19.9868 50.4831 19.5137L50.0201 20.4L49.557 21.2863C50.7953 21.9332 52.2074 22.24 53.7641 22.24V21.24ZM50.0201 20.4L50.4831 19.5137C49.567 19.0351 48.8754 18.3851 48.3828 17.5595L47.5241 18.072L46.6653 18.5845C47.3567 19.7429 48.3292 20.6449 49.557 21.2863L50.0201 20.4ZM47.5241 18.072L48.3889 17.5699C47.9102 16.7456 47.6601 15.7941 47.6601 14.688H46.6601H45.6601C45.6601 16.1099 45.9859 17.4144 46.6593 18.5741L47.5241 18.072ZM46.6601 14.688H47.6601C47.6601 13.5731 47.9226 12.6326 48.4208 11.8327L47.5721 11.304L46.7233 10.7753C46.0055 11.9274 45.6601 13.2429 45.6601 14.688H46.6601ZM47.5721 11.304L48.4185 11.8365C48.9406 11.0065 49.6644 10.3507 50.6164 9.86783L50.1641 8.976L49.7117 8.08417C48.4557 8.72127 47.4515 9.61754 46.7256 10.7715L47.5721 11.304ZM50.1641 8.976L50.6164 9.86783C51.5621 9.38817 52.6595 9.136 53.9321 9.136V8.136V7.136C52.3886 7.136 50.9741 7.44383 49.7117 8.08417L50.1641 8.976ZM53.9321 8.136V9.136C54.7336 9.136 55.4487 9.23074 56.0841 9.41031L56.3561 8.448L56.628 7.48569C55.7914 7.24925 54.8905 7.136 53.9321 7.136V8.136ZM56.3561 8.448L56.0895 9.41181C56.7641 9.5984 57.3275 9.84271 57.7919 10.1346L58.3241 9.288L58.8562 8.44136C58.2007 8.02928 57.4521 7.7136 56.6226 7.48419L56.3561 8.448ZM58.3241 9.288L57.7919 10.1346C58.2738 10.4375 58.6012 10.7407 58.8127 11.03L59.6201 10.44L60.4275 9.84998C60.0309 9.30734 59.4943 8.84246 58.8562 8.44136L58.3241 9.288ZM59.6201 10.44L58.8392 11.0647C59.0569 11.3369 59.1188 11.5454 59.1248 11.7024L60.1241 11.664L61.1233 11.6256C61.0974 10.9506 60.8232 10.3431 60.4009 9.8153L59.6201 10.44ZM60.1241 11.664V10.664H59.4281V11.664V12.664H60.1241V11.664ZM59.4281 11.664H60.4281V8.4H59.4281H58.4281V11.664H59.4281ZM59.4281 8.4V9.4H61.9001V8.4V7.4H59.4281V8.4ZM61.9001 8.4H60.9001V21H61.9001H62.9001V8.4H61.9001ZM61.9001 21V20H59.4281V21V22H61.9001V21ZM59.4281 21H60.4281V17.616H59.4281H58.4281V21H59.4281ZM59.4281 17.616L59.1964 18.5888L59.7004 18.7088L59.9321 17.736L60.1637 16.7632L59.6597 16.6432L59.4281 17.616ZM59.9321 17.736L58.9329 17.6944C58.9294 17.7802 58.8836 17.9746 58.6167 18.2901L59.3801 18.936L60.1434 19.5819C60.5805 19.0654 60.9028 18.4598 60.9312 17.7776L59.9321 17.736ZM59.3801 18.936L58.6144 18.2928C58.3648 18.5899 57.9999 18.8995 57.4906 19.2107L58.0121 20.064L58.5335 20.9173C59.1762 20.5245 59.7233 20.0821 60.1458 19.5792L59.3801 18.936ZM58.0121 20.064L57.4799 19.2174C57.006 19.5152 56.4415 19.7691 55.7769 19.9713L56.0681 20.928L56.3592 21.8847C57.1666 21.6389 57.8981 21.3168 58.5442 20.9106L58.0121 20.064ZM56.0681 20.928L55.7961 19.9657C55.1526 20.1476 54.4763 20.24 53.7641 20.24V21.24V22.24C54.6518 22.24 55.5115 22.1244 56.34 21.8903L56.0681 20.928ZM54.3401 18.96V19.96C55.4844 19.96 56.5379 19.754 57.477 19.3132L57.0521 18.408L56.6272 17.5028C55.9982 17.798 55.2437 17.96 54.3401 17.96V18.96ZM57.0521 18.408L57.4919 19.3061C58.4121 18.8554 59.1628 18.2345 59.7049 17.4315L58.8761 16.872L58.0472 16.3125C57.7253 16.7895 57.2601 17.1926 56.6122 17.5099L57.0521 18.408ZM58.8761 16.872L59.7112 17.422C60.2529 16.5995 60.5241 15.6797 60.5241 14.688H59.5241H58.5241C58.5241 15.2963 58.3633 15.8325 58.0409 16.322L58.8761 16.872ZM59.5241 14.688H60.5241C60.5241 13.6962 60.2527 12.78 59.7049 11.9685L58.8761 12.528L58.0472 13.0875C58.3635 13.556 58.5241 14.0798 58.5241 14.688H59.5241ZM58.8761 12.528L59.7049 11.9685C59.1601 11.1613 58.404 10.5459 57.477 10.1108L57.0521 11.016L56.6272 11.9212C57.2681 12.2221 57.7281 12.6147 58.0472 13.0875L58.8761 12.528ZM57.0521 11.016L57.4919 10.1179C56.5492 9.6562 55.4903 9.44 54.3401 9.44V10.44V11.44C55.2378 11.44 55.9869 11.6078 56.6122 11.9141L57.0521 11.016ZM54.3401 10.44V9.44C53.2032 9.44 52.1528 9.65721 51.2122 10.1179L51.6521 11.016L52.0919 11.9141C52.7193 11.6068 53.461 11.44 54.3401 11.44V10.44ZM51.6521 11.016L51.2199 10.1142C50.3112 10.5496 49.5642 11.1611 49.0088 11.9545L49.8281 12.528L50.6473 13.1015C50.9879 12.6149 51.4569 12.2184 52.0842 11.9178L51.6521 11.016ZM49.8281 12.528L48.9992 11.9685C48.4515 12.78 48.1801 13.6962 48.1801 14.688H49.1801H50.1801C50.1801 14.0798 50.3406 13.556 50.6569 13.0875L49.8281 12.528ZM49.1801 14.688H48.1801C48.1801 15.6797 48.4513 16.5995 48.9929 17.422L49.8281 16.872L50.6632 16.322C50.3409 15.8325 50.1801 15.2963 50.1801 14.688H49.1801ZM49.8281 16.872L49.0088 17.4455C49.5614 18.2349 50.3031 18.8516 51.2048 19.3024L51.6521 18.408L52.0993 17.5136C51.465 17.1964 50.9907 16.7891 50.6473 16.2985L49.8281 16.872ZM51.6521 18.408L51.2272 19.3132C52.1642 19.7531 53.2091 19.96 54.3401 19.96V18.96V17.96C53.455 17.96 52.7079 17.7989 52.077 17.5028L51.6521 18.408ZM72.4136 21H71.4136V22H72.4136V21ZM72.4136 4.608V3.608H71.4136V4.608H72.4136ZM74.8856 4.608H75.8856V3.608H74.8856V4.608ZM74.8856 21V22H75.8856V21H74.8856ZM68.6456 10.8H67.6456V11.8H68.6456V10.8ZM68.6456 8.4V7.4H67.6456V8.4H68.6456ZM79.3496 8.4H80.3496V7.4H79.3496V8.4ZM79.3496 10.8V11.8H80.3496V10.8H79.3496ZM72.4136 21H73.4136V4.608H72.4136H71.4136V21H72.4136ZM72.4136 4.608V5.608H74.8856V4.608V3.608H72.4136V4.608ZM74.8856 4.608H73.8856V21H74.8856H75.8856V4.608H74.8856ZM74.8856 21V20H72.4136V21V22H74.8856V21ZM68.6456 10.8H69.6456V8.4H68.6456H67.6456V10.8H68.6456ZM68.6456 8.4V9.4H79.3496V8.4V7.4H68.6456V8.4ZM79.3496 8.4H78.3496V10.8H79.3496H80.3496V8.4H79.3496ZM79.3496 10.8V9.8H68.6456V10.8V11.8H79.3496V10.8ZM86.8803 21H85.8803V22H86.8803V21ZM86.8803 8.4V7.4H85.8803V8.4H86.8803ZM89.3763 8.4H90.3763V7.4H89.3763V8.4ZM89.3763 12.864L88.9291 13.7584L90.3763 14.482V12.864H89.3763ZM88.7523 12.552L87.7929 12.2698L87.5569 13.0723L88.3051 13.4464L88.7523 12.552ZM89.9523 10.344L90.7129 10.9933L90.7205 10.9842L89.9523 10.344ZM91.8963 8.736L91.4188 7.85737L91.4188 7.85737L91.8963 8.736ZM95.7123 8.304L95.492 9.27946L95.4986 9.2809L95.7123 8.304ZM96.8883 8.76L97.8579 9.00467L98.0259 8.33896L97.465 7.94303L96.8883 8.76ZM96.2403 11.328L95.7584 12.2042L96.8931 12.8283L97.2099 11.5727L96.2403 11.328ZM95.0643 10.896L94.8218 11.8662L94.8297 11.8681L95.0643 10.896ZM91.9683 11.088L92.3589 12.0086L92.3654 12.0058L92.372 12.0029L91.9683 11.088ZM90.5763 11.976L89.8993 11.2401L89.8918 11.247L89.8844 11.254L90.5763 11.976ZM89.6883 13.224L90.5954 13.6451L90.6008 13.6331L89.6883 13.224ZM89.3763 21V22H90.3763V21H89.3763ZM86.8803 21H87.8803V8.4H86.8803H85.8803V21H86.8803ZM86.8803 8.4V9.4H89.3763V8.4V7.4H86.8803V8.4ZM89.3763 8.4H88.3763V12.864H89.3763H90.3763V8.4H89.3763ZM89.3763 12.864L89.8235 11.9696L89.1995 11.6576L88.7523 12.552L88.3051 13.4464L88.9291 13.7584L89.3763 12.864ZM88.7523 12.552L89.7117 12.8342C89.9114 12.1551 90.2429 11.5438 90.7129 10.9933L89.9523 10.344L89.1917 9.69474C88.5417 10.4562 88.0732 11.3169 87.7929 12.2698L88.7523 12.552ZM89.9523 10.344L90.7205 10.9842C91.2032 10.405 91.7538 9.95158 92.3738 9.61462L91.8963 8.736L91.4188 7.85737C90.5668 8.32042 89.8214 8.93904 89.1841 9.70381L89.9523 10.344ZM91.8963 8.736L92.3738 9.61462C92.9736 9.28866 93.5705 9.136 94.1763 9.136V8.136V7.136C93.2141 7.136 92.291 7.38334 91.4188 7.85737L91.8963 8.736ZM94.1763 8.136V9.136C94.6331 9.136 95.0711 9.18438 95.4921 9.27944L95.7123 8.304L95.9326 7.32856C95.3616 7.19962 94.7756 7.136 94.1763 7.136V8.136ZM95.7123 8.304L95.4986 9.2809C95.9468 9.37893 96.1933 9.49341 96.3116 9.57697L96.8883 8.76L97.465 7.94303C97.0394 7.64259 96.5019 7.45307 95.926 7.3271L95.7123 8.304ZM96.8883 8.76L95.9187 8.51533L95.2707 11.0833L96.2403 11.328L97.2099 11.5727L97.8579 9.00467L96.8883 8.76ZM96.2403 11.328L96.7222 10.4518C96.3048 10.2222 95.8244 10.0508 95.299 9.92392L95.0643 10.896L94.8297 11.8681C95.2322 11.9652 95.5358 12.0818 95.7584 12.2042L96.2403 11.328ZM95.0643 10.896L95.3068 9.92586C94.7881 9.79617 94.2745 9.728 93.7683 9.728V10.728V11.728C94.0941 11.728 94.4445 11.7718 94.8218 11.8661L95.0643 10.896ZM93.7683 10.728V9.728C92.9878 9.728 92.2484 9.87142 91.5647 10.1731L91.9683 11.088L92.372 12.0029C92.7762 11.8246 93.2369 11.728 93.7683 11.728V10.728ZM91.9683 11.088L91.5778 10.1674C90.9503 10.4336 90.3881 10.7904 89.8993 11.2401L90.5763 11.976L91.2534 12.7119C91.5646 12.4256 91.9304 12.1904 92.3589 12.0086L91.9683 11.088ZM90.5763 11.976L89.8844 11.254C89.4118 11.707 89.0389 12.228 88.7758 12.8149L89.6883 13.224L90.6008 13.6331C90.7537 13.292 90.9729 12.981 91.2682 12.698L90.5763 11.976ZM89.6883 13.224L88.7813 12.8029C88.5139 13.3789 88.3763 13.9863 88.3763 14.616H89.3763H90.3763C90.3763 14.2857 90.4467 13.9651 90.5953 13.6451L89.6883 13.224ZM89.3763 14.616H88.3763V21H89.3763H90.3763V14.616H89.3763ZM89.3763 21V20H86.8803V21V22H89.3763V21ZM104.559 20.4L105.022 19.5137L105.022 19.5137L104.559 20.4ZM102.063 18.072L101.198 18.5742L101.204 18.5845L102.063 18.072ZM102.111 11.304L101.265 10.7715L101.262 10.7753L102.111 11.304ZM104.703 8.976L104.251 8.08417L104.251 8.08417L104.703 8.976ZM110.895 8.448L110.623 9.41032L110.629 9.41181L110.895 8.448ZM112.863 9.288L113.395 8.44136L113.395 8.44136L112.863 9.288ZM114.159 10.44L113.352 11.03L113.365 11.0476L113.378 11.0647L114.159 10.44ZM114.663 11.664V12.664H115.702L115.662 11.6256L114.663 11.664ZM113.967 11.664H112.967V12.664H113.967V11.664ZM113.967 8.4V7.4H112.967V8.4H113.967ZM116.439 8.4H117.439V7.4H116.439V8.4ZM116.439 21V22H117.439V21H116.439ZM113.967 21H112.967V22H113.967V21ZM113.967 17.616L114.199 16.6432L112.967 16.35V17.616H113.967ZM114.471 17.736L115.47 17.7776L115.505 16.9541L114.703 16.7632L114.471 17.736ZM113.919 18.936L113.156 18.2901L113.153 18.2928L113.919 18.936ZM112.551 20.064L112.03 19.2107L112.019 19.2174L112.551 20.064ZM110.607 20.928L110.879 21.8903L110.889 21.8876L110.898 21.8847L110.607 20.928ZM111.591 18.408L112.016 19.3132L112.024 19.3097L112.031 19.3061L111.591 18.408ZM113.415 16.872L114.244 17.4315L114.25 17.422L113.415 16.872ZM111.591 11.016L111.151 11.9141L111.159 11.9177L111.166 11.9212L111.591 11.016ZM106.191 11.016L106.623 11.9178L106.631 11.9141L106.191 11.016ZM104.367 12.528L103.548 11.9545L103.543 11.9615L103.538 11.9685L104.367 12.528ZM104.367 16.872L103.532 17.422L103.54 17.4338L103.548 17.4455L104.367 16.872ZM106.191 18.408L105.744 19.3024L105.755 19.308L105.766 19.3132L106.191 18.408ZM108.303 21.24V20.24C107.012 20.24 105.928 19.9868 105.022 19.5137L104.559 20.4L104.096 21.2863C105.334 21.9332 106.746 22.24 108.303 22.24V21.24ZM104.559 20.4L105.022 19.5137C104.106 19.0351 103.415 18.3851 102.922 17.5595L102.063 18.072L101.204 18.5845C101.896 19.7429 102.868 20.6449 104.096 21.2863L104.559 20.4ZM102.063 18.072L102.928 17.5699C102.449 16.7456 102.199 15.7941 102.199 14.688H101.199H100.199C100.199 16.1099 100.525 17.4144 101.198 18.5741L102.063 18.072ZM101.199 14.688H102.199C102.199 13.5731 102.462 12.6326 102.96 11.8327L102.111 11.304L101.262 10.7753C100.545 11.9274 100.199 13.2429 100.199 14.688H101.199ZM102.111 11.304L102.958 11.8365C103.48 11.0065 104.204 10.3507 105.156 9.86783L104.703 8.976L104.251 8.08417C102.995 8.72127 101.991 9.61754 101.265 10.7715L102.111 11.304ZM104.703 8.976L105.156 9.86783C106.101 9.38817 107.199 9.136 108.471 9.136V8.136V7.136C106.928 7.136 105.513 7.44383 104.251 8.08417L104.703 8.976ZM108.471 8.136V9.136C109.273 9.136 109.988 9.23074 110.623 9.41031L110.895 8.448L111.167 7.48569C110.33 7.24925 109.43 7.136 108.471 7.136V8.136ZM110.895 8.448L110.629 9.41181C111.303 9.5984 111.867 9.84271 112.331 10.1346L112.863 9.288L113.395 8.44136C112.74 8.02928 111.991 7.7136 111.162 7.48419L110.895 8.448ZM112.863 9.288L112.331 10.1346C112.813 10.4375 113.14 10.7407 113.352 11.03L114.159 10.44L114.967 9.84998C114.57 9.30734 114.033 8.84246 113.395 8.44136L112.863 9.288ZM114.159 10.44L113.378 11.0647C113.596 11.3369 113.658 11.5454 113.664 11.7024L114.663 11.664L115.662 11.6256C115.636 10.9506 115.362 10.3431 114.94 9.8153L114.159 10.44ZM114.663 11.664V10.664H113.967V11.664V12.664H114.663V11.664ZM113.967 11.664H114.967V8.4H113.967H112.967V11.664H113.967ZM113.967 8.4V9.4H116.439V8.4V7.4H113.967V8.4ZM116.439 8.4H115.439V21H116.439H117.439V8.4H116.439ZM116.439 21V20H113.967V21V22H116.439V21ZM113.967 21H114.967V17.616H113.967H112.967V21H113.967ZM113.967 17.616L113.736 18.5888L114.24 18.7088L114.471 17.736L114.703 16.7632L114.199 16.6432L113.967 17.616ZM114.471 17.736L113.472 17.6944C113.468 17.7802 113.423 17.9746 113.156 18.2901L113.919 18.936L114.683 19.5819C115.12 19.0654 115.442 18.4598 115.47 17.7776L114.471 17.736ZM113.919 18.936L113.153 18.2928C112.904 18.5899 112.539 18.8995 112.03 19.2107L112.551 20.064L113.073 20.9173C113.715 20.5245 114.262 20.0821 114.685 19.5792L113.919 18.936ZM112.551 20.064L112.019 19.2174C111.545 19.5152 110.981 19.7691 110.316 19.9713L110.607 20.928L110.898 21.8847C111.706 21.6389 112.437 21.3168 113.083 20.9106L112.551 20.064ZM110.607 20.928L110.335 19.9657C109.692 20.1476 109.015 20.24 108.303 20.24V21.24V22.24C109.191 22.24 110.051 22.1244 110.879 21.8903L110.607 20.928ZM108.879 18.96V19.96C110.023 19.96 111.077 19.754 112.016 19.3132L111.591 18.408L111.166 17.5028C110.537 17.798 109.783 17.96 108.879 17.96V18.96ZM111.591 18.408L112.031 19.3061C112.951 18.8554 113.702 18.2345 114.244 17.4315L113.415 16.872L112.586 16.3125C112.264 16.7895 111.799 17.1926 111.151 17.5099L111.591 18.408ZM113.415 16.872L114.25 17.422C114.792 16.5995 115.063 15.6797 115.063 14.688H114.063H113.063C113.063 15.2963 112.902 15.8325 112.58 16.322L113.415 16.872ZM114.063 14.688H115.063C115.063 13.6962 114.792 12.78 114.244 11.9685L113.415 12.528L112.586 13.0875C112.903 13.556 113.063 14.0798 113.063 14.688H114.063ZM113.415 12.528L114.244 11.9685C113.699 11.1613 112.943 10.5459 112.016 10.1108L111.591 11.016L111.166 11.9212C111.807 12.2221 112.267 12.6147 112.586 13.0875L113.415 12.528ZM111.591 11.016L112.031 10.1179C111.088 9.6562 110.029 9.44 108.879 9.44V10.44V11.44C109.777 11.44 110.526 11.6078 111.151 11.9141L111.591 11.016ZM108.879 10.44V9.44C107.742 9.44 106.692 9.65721 105.751 10.1179L106.191 11.016L106.631 11.9141C107.258 11.6068 108 11.44 108.879 11.44V10.44ZM106.191 11.016L105.759 10.1142C104.85 10.5496 104.103 11.1611 103.548 11.9545L104.367 12.528L105.186 13.1015C105.527 12.6149 105.996 12.2184 106.623 11.9178L106.191 11.016ZM104.367 12.528L103.538 11.9685C102.991 12.78 102.719 13.6962 102.719 14.688H103.719H104.719C104.719 14.0798 104.88 13.556 105.196 13.0875L104.367 12.528ZM103.719 14.688H102.719C102.719 15.6797 102.99 16.5995 103.532 17.422L104.367 16.872L105.202 16.322C104.88 15.8325 104.719 15.2963 104.719 14.688H103.719ZM104.367 16.872L103.548 17.4455C104.1 18.2349 104.842 18.8516 105.744 19.3024L106.191 18.408L106.638 17.5136C106.004 17.1964 105.53 16.7891 105.186 16.2985L104.367 16.872ZM106.191 18.408L105.766 19.3132C106.703 19.7531 107.748 19.96 108.879 19.96V18.96V17.96C107.994 17.96 107.247 17.7989 106.616 17.5028L106.191 18.408Z" fill="white" mask="url(#path-1-outside-1_12_2)"/>
<path d="M5.56738 21H4.56738V22H5.56738V21ZM5.56738 19.104L4.83194 18.4264L4.56738 18.7136V19.104H5.56738ZM17.3754 6.288L17.8632 5.41506L17.1745 5.0302L16.6399 5.61041L17.3754 6.288ZM18.1914 6.744V7.744H22.0308L18.6792 5.87106L18.1914 6.744ZM6.19138 6.744H5.19138V7.744H6.19138V6.744ZM6.19138 4.2V3.2H5.19138V4.2H6.19138ZM21.0474 4.2H22.0474V3.2H21.0474V4.2ZM21.0474 6.072L21.7841 6.74816L22.0474 6.46132V6.072H21.0474ZM9.26338 18.912L8.77555 19.7849L9.46562 20.1706L10.0001 19.5882L9.26338 18.912ZM8.44738 18.456V17.456H4.60797L7.95955 19.3289L8.44738 18.456ZM21.3114 18.456H22.3114V17.456H21.3114V18.456ZM21.3114 21V22H22.3114V21H21.3114ZM5.56738 21H6.56738V19.104H5.56738H4.56738V21H5.56738ZM5.56738 19.104L6.30281 19.7816L18.1108 6.96559L17.3754 6.288L16.6399 5.61041L4.83194 18.4264L5.56738 19.104ZM17.3754 6.288L16.8876 7.16094L17.7036 7.61694L18.1914 6.744L18.6792 5.87106L17.8632 5.41506L17.3754 6.288ZM18.1914 6.744V5.744H6.19138V6.744V7.744H18.1914V6.744ZM6.19138 6.744H7.19138V4.2H6.19138H5.19138V6.744H6.19138ZM6.19138 4.2V5.2H21.0474V4.2V3.2H6.19138V4.2ZM21.0474 4.2H20.0474V6.072H21.0474H22.0474V4.2H21.0474ZM21.0474 6.072L20.3106 5.39584L8.52662 18.2358L9.26338 18.912L10.0001 19.5882L21.7841 6.74816L21.0474 6.072ZM9.26338 18.912L9.7512 18.0391L8.9352 17.5831L8.44738 18.456L7.95955 19.3289L8.77555 19.7849L9.26338 18.912ZM8.44738 18.456V19.456H21.3114V18.456V17.456H8.44738V18.456ZM21.3114 18.456H20.3114V21H21.3114H22.3114V18.456H21.3114ZM21.3114 21V20H5.56738V21V22H21.3114V21ZM30.0682 26.52L29.1917 26.0386L28.3781 27.52H30.0682V26.52ZM33.2842 20.664L34.2841 20.6513L34.236 16.8534L32.4077 20.1826L33.2842 20.664ZM33.3082 22.56L32.4292 23.0368L34.3081 22.5473L33.3082 22.56ZM25.6282 8.4V7.4H23.9482L24.7492 8.87676L25.6282 8.4ZM28.5322 8.4L29.4225 7.94468L29.144 7.4H28.5322V8.4ZM32.3002 15.768L31.4099 16.2233L31.4142 16.2318L31.4187 16.2402L32.3002 15.768ZM33.5242 18.216L32.6145 18.6313L32.62 18.6433L32.6258 18.6552L33.5242 18.216ZM34.2202 20.136L34.2867 21.1338L35.4244 21.0579L35.2008 19.9399L34.2202 20.136ZM33.8602 20.16L32.9261 19.8029L32.3684 21.2617L33.9267 21.1578L33.8602 20.16ZM34.6522 18.216L35.5723 18.6076L35.5723 18.6076L34.6522 18.216ZM35.8282 15.72L36.7195 16.1735L36.7243 16.1639L36.729 16.1542L35.8282 15.72ZM39.3562 8.4V7.4H38.7281L38.4554 7.96583L39.3562 8.4ZM42.2602 8.4L43.1444 8.86712L43.9195 7.4H42.2602V8.4ZM35.5402 21.12L34.656 20.6529L34.6546 20.6556L35.5402 21.12ZM32.7082 26.52V27.52H33.3129L33.5938 26.9844L32.7082 26.52ZM30.0682 26.52L30.9447 27.0014L34.1607 21.1454L33.2842 20.664L32.4077 20.1826L29.1917 26.0386L30.0682 26.52ZM33.2842 20.664L32.2843 20.6767L32.3083 22.5727L33.3082 22.56L34.3081 22.5473L34.2841 20.6513L33.2842 20.664ZM33.3082 22.56L34.1872 22.0832L26.5072 7.92324L25.6282 8.4L24.7492 8.87676L32.4292 23.0368L33.3082 22.56ZM25.6282 8.4V9.4H28.5322V8.4V7.4H25.6282V8.4ZM28.5322 8.4L27.6419 8.85531L31.4099 16.2233L32.3002 15.768L33.1905 15.3127L29.4225 7.94468L28.5322 8.4ZM32.3002 15.768L31.4187 16.2402C31.8911 17.122 32.2892 17.9187 32.6145 18.6313L33.5242 18.216L34.4339 17.8007C34.0872 17.0413 33.6693 16.206 33.1817 15.2958L32.3002 15.768ZM33.5242 18.216L32.6258 18.6552C32.954 19.3265 33.1497 19.8826 33.2396 20.3321L34.2202 20.136L35.2008 19.9399C35.0667 19.2694 34.7984 18.5455 34.4226 17.7768L33.5242 18.216ZM34.2202 20.136L34.1537 19.1382L33.7937 19.1622L33.8602 20.16L33.9267 21.1578L34.2867 21.1338L34.2202 20.136ZM33.8602 20.16L34.7942 20.5171C34.9965 19.9882 35.2554 19.3523 35.5723 18.6076L34.6522 18.216L33.732 17.8244C33.409 18.5837 33.1399 19.2438 32.9261 19.8029L33.8602 20.16ZM34.6522 18.216L35.5723 18.6076C35.8815 17.8809 36.2634 17.07 36.7195 16.1735L35.8282 15.72L34.9369 15.2665C34.465 16.194 34.0628 17.0471 33.732 17.8244L34.6522 18.216ZM35.8282 15.72L36.729 16.1542L40.257 8.83417L39.3562 8.4L38.4554 7.96583L34.9274 15.2858L35.8282 15.72ZM39.3562 8.4V9.4H42.2602V8.4V7.4H39.3562V8.4ZM42.2602 8.4L41.376 7.93288L34.656 20.6529L35.5402 21.12L36.4244 21.5871L43.1444 8.86712L42.2602 8.4ZM35.5402 21.12L34.6546 20.6556L31.8226 26.0556L32.7082 26.52L33.5938 26.9844L36.4258 21.5844L35.5402 21.12ZM32.7082 26.52V25.52H30.0682V26.52V27.52H32.7082V26.52ZM50.0201 20.4L50.4831 19.5137L50.4831 19.5137L50.0201 20.4ZM47.5241 18.072L46.6592 18.5742L46.6653 18.5845L47.5241 18.072ZM47.5721 11.304L46.7256 10.7715L46.7233 10.7753L47.5721 11.304ZM50.1641 8.976L49.7117 8.08417L49.7117 8.08417L50.1641 8.976ZM56.3561 8.448L56.0841 9.41032L56.0895 9.41181L56.3561 8.448ZM58.3241 9.288L58.8562 8.44136L58.8562 8.44136L58.3241 9.288ZM59.6201 10.44L58.8127 11.03L58.8256 11.0476L58.8392 11.0647L59.6201 10.44ZM60.1241 11.664V12.664H61.1633L61.1233 11.6256L60.1241 11.664ZM59.4281 11.664H58.4281V12.664H59.4281V11.664ZM59.4281 8.4V7.4H58.4281V8.4H59.4281ZM61.9001 8.4H62.9001V7.4H61.9001V8.4ZM61.9001 21V22H62.9001V21H61.9001ZM59.4281 21H58.4281V22H59.4281V21ZM59.4281 17.616L59.6597 16.6432L58.4281 16.35V17.616H59.4281ZM59.9321 17.736L60.9312 17.7776L60.9655 16.9541L60.1637 16.7632L59.9321 17.736ZM59.3801 18.936L58.6167 18.2901L58.6144 18.2928L59.3801 18.936ZM58.0121 20.064L57.4906 19.2107L57.4799 19.2174L58.0121 20.064ZM56.0681 20.928L56.34 21.8903L56.3497 21.8876L56.3592 21.8847L56.0681 20.928ZM57.0521 18.408L57.477 19.3132L57.4845 19.3097L57.4919 19.3061L57.0521 18.408ZM58.8761 16.872L59.705 17.4315L59.7112 17.422L58.8761 16.872ZM57.0521 11.016L56.6122 11.9141L56.6196 11.9177L56.6272 11.9212L57.0521 11.016ZM51.6521 11.016L52.0842 11.9178L52.0919 11.9141L51.6521 11.016ZM49.8281 12.528L49.0088 11.9545L49.004 11.9615L48.9992 11.9685L49.8281 12.528ZM49.8281 16.872L48.9929 17.422L49.0007 17.4338L49.0088 17.4455L49.8281 16.872ZM51.6521 18.408L51.2048 19.3024L51.2159 19.308L51.2272 19.3132L51.6521 18.408ZM53.7641 21.24V20.24C52.4727 20.24 51.3888 19.9868 50.4831 19.5137L50.0201 20.4L49.557 21.2863C50.7953 21.9332 52.2074 22.24 53.7641 22.24V21.24ZM50.0201 20.4L50.4831 19.5137C49.567 19.0351 48.8754 18.3851 48.3828 17.5595L47.5241 18.072L46.6653 18.5845C47.3567 19.7429 48.3292 20.6449 49.557 21.2863L50.0201 20.4ZM47.5241 18.072L48.3889 17.5699C47.9102 16.7456 47.6601 15.7941 47.6601 14.688H46.6601H45.6601C45.6601 16.1099 45.9859 17.4144 46.6593 18.5741L47.5241 18.072ZM46.6601 14.688H47.6601C47.6601 13.5731 47.9226 12.6326 48.4208 11.8327L47.5721 11.304L46.7233 10.7753C46.0055 11.9274 45.6601 13.2429 45.6601 14.688H46.6601ZM47.5721 11.304L48.4185 11.8365C48.9406 11.0065 49.6644 10.3507 50.6164 9.86783L50.1641 8.976L49.7117 8.08417C48.4557 8.72127 47.4515 9.61754 46.7256 10.7715L47.5721 11.304ZM50.1641 8.976L50.6164 9.86783C51.5621 9.38817 52.6595 9.136 53.9321 9.136V8.136V7.136C52.3886 7.136 50.9741 7.44383 49.7117 8.08417L50.1641 8.976ZM53.9321 8.136V9.136C54.7336 9.136 55.4487 9.23074 56.0841 9.41031L56.3561 8.448L56.628 7.48569C55.7914 7.24925 54.8905 7.136 53.9321 7.136V8.136ZM56.3561 8.448L56.0895 9.41181C56.7641 9.5984 57.3275 9.84271 57.7919 10.1346L58.3241 9.288L58.8562 8.44136C58.2007 8.02928 57.4521 7.7136 56.6226 7.48419L56.3561 8.448ZM58.3241 9.288L57.7919 10.1346C58.2738 10.4375 58.6012 10.7407 58.8127 11.03L59.6201 10.44L60.4275 9.84998C60.0309 9.30734 59.4943 8.84246 58.8562 8.44136L58.3241 9.288ZM59.6201 10.44L58.8392 11.0647C59.0569 11.3369 59.1188 11.5454 59.1248 11.7024L60.1241 11.664L61.1233 11.6256C61.0974 10.9506 60.8232 10.3431 60.4009 9.8153L59.6201 10.44ZM60.1241 11.664V10.664H59.4281V11.664V12.664H60.1241V11.664ZM59.4281 11.664H60.4281V8.4H59.4281H58.4281V11.664H59.4281ZM59.4281 8.4V9.4H61.9001V8.4V7.4H59.4281V8.4ZM61.9001 8.4H60.9001V21H61.9001H62.9001V8.4H61.9001ZM61.9001 21V20H59.4281V21V22H61.9001V21ZM59.4281 21H60.4281V17.616H59.4281H58.4281V21H59.4281ZM59.4281 17.616L59.1964 18.5888L59.7004 18.7088L59.9321 17.736L60.1637 16.7632L59.6597 16.6432L59.4281 17.616ZM59.9321 17.736L58.9329 17.6944C58.9294 17.7802 58.8836 17.9746 58.6167 18.2901L59.3801 18.936L60.1434 19.5819C60.5805 19.0654 60.9028 18.4598 60.9312 17.7776L59.9321 17.736ZM59.3801 18.936L58.6144 18.2928C58.3648 18.5899 57.9999 18.8995 57.4906 19.2107L58.0121 20.064L58.5335 20.9173C59.1762 20.5245 59.7233 20.0821 60.1458 19.5792L59.3801 18.936ZM58.0121 20.064L57.4799 19.2174C57.006 19.5152 56.4415 19.7691 55.7769 19.9713L56.0681 20.928L56.3592 21.8847C57.1666 21.6389 57.8981 21.3168 58.5442 20.9106L58.0121 20.064ZM56.0681 20.928L55.7961 19.9657C55.1526 20.1476 54.4763 20.24 53.7641 20.24V21.24V22.24C54.6518 22.24 55.5115 22.1244 56.34 21.8903L56.0681 20.928ZM54.3401 18.96V19.96C55.4844 19.96 56.5379 19.754 57.477 19.3132L57.0521 18.408L56.6272 17.5028C55.9982 17.798 55.2437 17.96 54.3401 17.96V18.96ZM57.0521 18.408L57.4919 19.3061C58.4121 18.8554 59.1628 18.2345 59.7049 17.4315L58.8761 16.872L58.0472 16.3125C57.7253 16.7895 57.2601 17.1926 56.6122 17.5099L57.0521 18.408ZM58.8761 16.872L59.7112 17.422C60.2529 16.5995 60.5241 15.6797 60.5241 14.688H59.5241H58.5241C58.5241 15.2963 58.3633 15.8325 58.0409 16.322L58.8761 16.872ZM59.5241 14.688H60.5241C60.5241 13.6962 60.2527 12.78 59.7049 11.9685L58.8761 12.528L58.0472 13.0875C58.3635 13.556 58.5241 14.0798 58.5241 14.688H59.5241ZM58.8761 12.528L59.7049 11.9685C59.1601 11.1613 58.404 10.5459 57.477 10.1108L57.0521 11.016L56.6272 11.9212C57.2681 12.2221 57.7281 12.6147 58.0472 13.0875L58.8761 12.528ZM57.0521 11.016L57.4919 10.1179C56.5492 9.6562 55.4903 9.44 54.3401 9.44V10.44V11.44C55.2378 11.44 55.9869 11.6078 56.6122 11.9141L57.0521 11.016ZM54.3401 10.44V9.44C53.2032 9.44 52.1528 9.65721 51.2122 10.1179L51.6521 11.016L52.0919 11.9141C52.7193 11.6068 53.461 11.44 54.3401 11.44V10.44ZM51.6521 11.016L51.2199 10.1142C50.3112 10.5496 49.5642 11.1611 49.0088 11.9545L49.8281 12.528L50.6473 13.1015C50.9879 12.6149 51.4569 12.2184 52.0842 11.9178L51.6521 11.016ZM49.8281 12.528L48.9992 11.9685C48.4515 12.78 48.1801 13.6962 48.1801 14.688H49.1801H50.1801C50.1801 14.0798 50.3406 13.556 50.6569 13.0875L49.8281 12.528ZM49.1801 14.688H48.1801C48.1801 15.6797 48.4513 16.5995 48.9929 17.422L49.8281 16.872L50.6632 16.322C50.3409 15.8325 50.1801 15.2963 50.1801 14.688H49.1801ZM49.8281 16.872L49.0088 17.4455C49.5614 18.2349 50.3031 18.8516 51.2048 19.3024L51.6521 18.408L52.0993 17.5136C51.465 17.1964 50.9907 16.7891 50.6473 16.2985L49.8281 16.872ZM51.6521 18.408L51.2272 19.3132C52.1642 19.7531 53.2091 19.96 54.3401 19.96V18.96V17.96C53.455 17.96 52.7079 17.7989 52.077 17.5028L51.6521 18.408ZM72.4136 21H71.4136V22H72.4136V21ZM72.4136 4.608V3.608H71.4136V4.608H72.4136ZM74.8856 4.608H75.8856V3.608H74.8856V4.608ZM74.8856 21V22H75.8856V21H74.8856ZM68.6456 10.8H67.6456V11.8H68.6456V10.8ZM68.6456 8.4V7.4H67.6456V8.4H68.6456ZM79.3496 8.4H80.3496V7.4H79.3496V8.4ZM79.3496 10.8V11.8H80.3496V10.8H79.3496ZM72.4136 21H73.4136V4.608H72.4136H71.4136V21H72.4136ZM72.4136 4.608V5.608H74.8856V4.608V3.608H72.4136V4.608ZM74.8856 4.608H73.8856V21H74.8856H75.8856V4.608H74.8856ZM74.8856 21V20H72.4136V21V22H74.8856V21ZM68.6456 10.8H69.6456V8.4H68.6456H67.6456V10.8H68.6456ZM68.6456 8.4V9.4H79.3496V8.4V7.4H68.6456V8.4ZM79.3496 8.4H78.3496V10.8H79.3496H80.3496V8.4H79.3496ZM79.3496 10.8V9.8H68.6456V10.8V11.8H79.3496V10.8ZM86.8803 21H85.8803V22H86.8803V21ZM86.8803 8.4V7.4H85.8803V8.4H86.8803ZM89.3763 8.4H90.3763V7.4H89.3763V8.4ZM89.3763 12.864L88.9291 13.7584L90.3763 14.482V12.864H89.3763ZM88.7523 12.552L87.7929 12.2698L87.5569 13.0723L88.3051 13.4464L88.7523 12.552ZM89.9523 10.344L90.7129 10.9933L90.7205 10.9842L89.9523 10.344ZM91.8963 8.736L91.4188 7.85737L91.4188 7.85737L91.8963 8.736ZM95.7123 8.304L95.492 9.27946L95.4986 9.2809L95.7123 8.304ZM96.8883 8.76L97.8579 9.00467L98.0259 8.33896L97.465 7.94303L96.8883 8.76ZM96.2403 11.328L95.7584 12.2042L96.8931 12.8283L97.2099 11.5727L96.2403 11.328ZM95.0643 10.896L94.8218 11.8662L94.8297 11.8681L95.0643 10.896ZM91.9683 11.088L92.3589 12.0086L92.3654 12.0058L92.372 12.0029L91.9683 11.088ZM90.5763 11.976L89.8993 11.2401L89.8918 11.247L89.8844 11.254L90.5763 11.976ZM89.6883 13.224L90.5954 13.6451L90.6008 13.6331L89.6883 13.224ZM89.3763 21V22H90.3763V21H89.3763ZM86.8803 21H87.8803V8.4H86.8803H85.8803V21H86.8803ZM86.8803 8.4V9.4H89.3763V8.4V7.4H86.8803V8.4ZM89.3763 8.4H88.3763V12.864H89.3763H90.3763V8.4H89.3763ZM89.3763 12.864L89.8235 11.9696L89.1995 11.6576L88.7523 12.552L88.3051 13.4464L88.9291 13.7584L89.3763 12.864ZM88.7523 12.552L89.7117 12.8342C89.9114 12.1551 90.2429 11.5438 90.7129 10.9933L89.9523 10.344L89.1917 9.69474C88.5417 10.4562 88.0732 11.3169 87.7929 12.2698L88.7523 12.552ZM89.9523 10.344L90.7205 10.9842C91.2032 10.405 91.7538 9.95158 92.3738 9.61462L91.8963 8.736L91.4188 7.85737C90.5668 8.32042 89.8214 8.93904 89.1841 9.70381L89.9523 10.344ZM91.8963 8.736L92.3738 9.61462C92.9736 9.28866 93.5705 9.136 94.1763 9.136V8.136V7.136C93.2141 7.136 92.291 7.38334 91.4188 7.85737L91.8963 8.736ZM94.1763 8.136V9.136C94.6331 9.136 95.0711 9.18438 95.4921 9.27944L95.7123 8.304L95.9326 7.32856C95.3616 7.19962 94.7756 7.136 94.1763 7.136V8.136ZM95.7123 8.304L95.4986 9.2809C95.9468 9.37893 96.1933 9.49341 96.3116 9.57697L96.8883 8.76L97.465 7.94303C97.0394 7.64259 96.5019 7.45307 95.926 7.3271L95.7123 8.304ZM96.8883 8.76L95.9187 8.51533L95.2707 11.0833L96.2403 11.328L97.2099 11.5727L97.8579 9.00467L96.8883 8.76ZM96.2403 11.328L96.7222 10.4518C96.3048 10.2222 95.8244 10.0508 95.299 9.92392L95.0643 10.896L94.8297 11.8681C95.2322 11.9652 95.5358 12.0818 95.7584 12.2042L96.2403 11.328ZM95.0643 10.896L95.3068 9.92586C94.7881 9.79617 94.2745 9.728 93.7683 9.728V10.728V11.728C94.0941 11.728 94.4445 11.7718 94.8218 11.8661L95.0643 10.896ZM93.7683 10.728V9.728C92.9878 9.728 92.2484 9.87142 91.5647 10.1731L91.9683 11.088L92.372 12.0029C92.7762 11.8246 93.2369 11.728 93.7683 11.728V10.728ZM91.9683 11.088L91.5778 10.1674C90.9503 10.4336 90.3881 10.7904 89.8993 11.2401L90.5763 11.976L91.2534 12.7119C91.5646 12.4256 91.9304 12.1904 92.3589 12.0086L91.9683 11.088ZM90.5763 11.976L89.8844 11.254C89.4118 11.707 89.0389 12.228 88.7758 12.8149L89.6883 13.224L90.6008 13.6331C90.7537 13.292 90.9729 12.981 91.2682 12.698L90.5763 11.976ZM89.6883 13.224L88.7813 12.8029C88.5139 13.3789 88.3763 13.9863 88.3763 14.616H89.3763H90.3763C90.3763 14.2857 90.4467 13.9651 90.5953 13.6451L89.6883 13.224ZM89.3763 14.616H88.3763V21H89.3763H90.3763V14.616H89.3763ZM89.3763 21V20H86.8803V21V22H89.3763V21ZM104.559 20.4L105.022 19.5137L105.022 19.5137L104.559 20.4ZM102.063 18.072L101.198 18.5742L101.204 18.5845L102.063 18.072ZM102.111 11.304L101.265 10.7715L101.262 10.7753L102.111 11.304ZM104.703 8.976L104.251 8.08417L104.251 8.08417L104.703 8.976ZM110.895 8.448L110.623 9.41032L110.629 9.41181L110.895 8.448ZM112.863 9.288L113.395 8.44136L113.395 8.44136L112.863 9.288ZM114.159 10.44L113.352 11.03L113.365 11.0476L113.378 11.0647L114.159 10.44ZM114.663 11.664V12.664H115.702L115.662 11.6256L114.663 11.664ZM113.967 11.664H112.967V12.664H113.967V11.664ZM113.967 8.4V7.4H112.967V8.4H113.967ZM116.439 8.4H117.439V7.4H116.439V8.4ZM116.439 21V22H117.439V21H116.439ZM113.967 21H112.967V22H113.967V21ZM113.967 17.616L114.199 16.6432L112.967 16.35V17.616H113.967ZM114.471 17.736L115.47 17.7776L115.505 16.9541L114.703 16.7632L114.471 17.736ZM113.919 18.936L113.156 18.2901L113.153 18.2928L113.919 18.936ZM112.551 20.064L112.03 19.2107L112.019 19.2174L112.551 20.064ZM110.607 20.928L110.879 21.8903L110.889 21.8876L110.898 21.8847L110.607 20.928ZM111.591 18.408L112.016 19.3132L112.024 19.3097L112.031 19.3061L111.591 18.408ZM113.415 16.872L114.244 17.4315L114.25 17.422L113.415 16.872ZM111.591 11.016L111.151 11.9141L111.159 11.9177L111.166 11.9212L111.591 11.016ZM106.191 11.016L106.623 11.9178L106.631 11.9141L106.191 11.016ZM104.367 12.528L103.548 11.9545L103.543 11.9615L103.538 11.9685L104.367 12.528ZM104.367 16.872L103.532 17.422L103.54 17.4338L103.548 17.4455L104.367 16.872ZM106.191 18.408L105.744 19.3024L105.755 19.308L105.766 19.3132L106.191 18.408ZM108.303 21.24V20.24C107.012 20.24 105.928 19.9868 105.022 19.5137L104.559 20.4L104.096 21.2863C105.334 21.9332 106.746 22.24 108.303 22.24V21.24ZM104.559 20.4L105.022 19.5137C104.106 19.0351 103.415 18.3851 102.922 17.5595L102.063 18.072L101.204 18.5845C101.896 19.7429 102.868 20.6449 104.096 21.2863L104.559 20.4ZM102.063 18.072L102.928 17.5699C102.449 16.7456 102.199 15.7941 102.199 14.688H101.199H100.199C100.199 16.1099 100.525 17.4144 101.198 18.5741L102.063 18.072ZM101.199 14.688H102.199C102.199 13.5731 102.462 12.6326 102.96 11.8327L102.111 11.304L101.262 10.7753C100.545 11.9274 100.199 13.2429 100.199 14.688H101.199ZM102.111 11.304L102.958 11.8365C103.48 11.0065 104.204 10.3507 105.156 9.86783L104.703 8.976L104.251 8.08417C102.995 8.72127 101.991 9.61754 101.265 10.7715L102.111 11.304ZM104.703 8.976L105.156 9.86783C106.101 9.38817 107.199 9.136 108.471 9.136V8.136V7.136C106.928 7.136 105.513 7.44383 104.251 8.08417L104.703 8.976ZM108.471 8.136V9.136C109.273 9.136 109.988 9.23074 110.623 9.41031L110.895 8.448L111.167 7.48569C110.33 7.24925 109.43 7.136 108.471 7.136V8.136ZM110.895 8.448L110.629 9.41181C111.303 9.5984 111.867 9.84271 112.331 10.1346L112.863 9.288L113.395 8.44136C112.74 8.02928 111.991 7.7136 111.162 7.48419L110.895 8.448ZM112.863 9.288L112.331 10.1346C112.813 10.4375 113.14 10.7407 113.352 11.03L114.159 10.44L114.967 9.84998C114.57 9.30734 114.033 8.84246 113.395 8.44136L112.863 9.288ZM114.159 10.44L113.378 11.0647C113.596 11.3369 113.658 11.5454 113.664 11.7024L114.663 11.664L115.662 11.6256C115.636 10.9506 115.362 10.3431 114.94 9.8153L114.159 10.44ZM114.663 11.664V10.664H113.967V11.664V12.664H114.663V11.664ZM113.967 11.664H114.967V8.4H113.967H112.967V11.664H113.967ZM113.967 8.4V9.4H116.439V8.4V7.4H113.967V8.4ZM116.439 8.4H115.439V21H116.439H117.439V8.4H116.439ZM116.439 21V20H113.967V21V22H116.439V21ZM113.967 21H114.967V17.616H113.967H112.967V21H113.967ZM113.967 17.616L113.736 18.5888L114.24 18.7088L114.471 17.736L114.703 16.7632L114.199 16.6432L113.967 17.616ZM114.471 17.736L113.472 17.6944C113.468 17.7802 113.423 17.9746 113.156 18.2901L113.919 18.936L114.683 19.5819C115.12 19.0654 115.442 18.4598 115.47 17.7776L114.471 17.736ZM113.919 18.936L113.153 18.2928C112.904 18.5899 112.539 18.8995 112.03 19.2107L112.551 20.064L113.073 20.9173C113.715 20.5245 114.262 20.0821 114.685 19.5792L113.919 18.936ZM112.551 20.064L112.019 19.2174C111.545 19.5152 110.981 19.7691 110.316 19.9713L110.607 20.928L110.898 21.8847C111.706 21.6389 112.437 21.3168 113.083 20.9106L112.551 20.064ZM110.607 20.928L110.335 19.9657C109.692 20.1476 109.015 20.24 108.303 20.24V21.24V22.24C109.191 22.24 110.051 22.1244 110.879 21.8903L110.607 20.928ZM108.879 18.96V19.96C110.023 19.96 111.077 19.754 112.016 19.3132L111.591 18.408L111.166 17.5028C110.537 17.798 109.783 17.96 108.879 17.96V18.96ZM111.591 18.408L112.031 19.3061C112.951 18.8554 113.702 18.2345 114.244 17.4315L113.415 16.872L112.586 16.3125C112.264 16.7895 111.799 17.1926 111.151 17.5099L111.591 18.408ZM113.415 16.872L114.25 17.422C114.792 16.5995 115.063 15.6797 115.063 14.688H114.063H113.063C113.063 15.2963 112.902 15.8325 112.58 16.322L113.415 16.872ZM114.063 14.688H115.063C115.063 13.6962 114.792 12.78 114.244 11.9685L113.415 12.528L112.586 13.0875C112.903 13.556 113.063 14.0798 113.063 14.688H114.063ZM113.415 12.528L114.244 11.9685C113.699 11.1613 112.943 10.5459 112.016 10.1108L111.591 11.016L111.166 11.9212C111.807 12.2221 112.267 12.6147 112.586 13.0875L113.415 12.528ZM111.591 11.016L112.031 10.1179C111.088 9.6562 110.029 9.44 108.879 9.44V10.44V11.44C109.777 11.44 110.526 11.6078 111.151 11.9141L111.591 11.016ZM108.879 10.44V9.44C107.742 9.44 106.692 9.65721 105.751 10.1179L106.191 11.016L106.631 11.9141C107.258 11.6068 108 11.44 108.879 11.44V10.44ZM106.191 11.016L105.759 10.1142C104.85 10.5496 104.103 11.1611 103.548 11.9545L104.367 12.528L105.186 13.1015C105.527 12.6149 105.996 12.2184 106.623 11.9178L106.191 11.016ZM104.367 12.528L103.538 11.9685C102.991 12.78 102.719 13.6962 102.719 14.688H103.719H104.719C104.719 14.0798 104.88 13.556 105.196 13.0875L104.367 12.528ZM103.719 14.688H102.719C102.719 15.6797 102.99 16.5995 103.532 17.422L104.367 16.872L105.202 16.322C104.88 15.8325 104.719 15.2963 104.719 14.688H103.719ZM104.367 16.872L103.548 17.4455C104.1 18.2349 104.842 18.8516 105.744 19.3024L106.191 18.408L106.638 17.5136C106.004 17.1964 105.53 16.7891 105.186 16.2985L104.367 16.872ZM106.191 18.408L105.766 19.3132C106.703 19.7531 107.748 19.96 108.879 19.96V18.96V17.96C107.994 17.96 107.247 17.7989 106.616 17.5028L106.191 18.408Z" fill="#FFFEFE" fill-opacity="0.2" mask="url(#path-1-outside-1_12_2)"/>
</g>
<defs>
<filter id="filter0_dd_12_2" x="0.567375" y="0.199997" width="120.872" height="32.32" filterUnits="userSpaceOnUse" color-interpolation-filters="sRGB">
<feFlood flood-opacity="0" result="BackgroundImageFix"/>
<feColorMatrix in="SourceAlpha" type="matrix" values="0 0 0 0 0 0 0 0 0 0 0 0 0 0 0 0 0 0 127 0" result="hardAlpha"/>
<feOffset dy="1"/>
<feGaussianBlur stdDeviation="2"/>
<feComposite in2="hardAlpha" operator="out"/>
<feColorMatrix type="matrix" values="0 0 0 0 0.0470588 0 0 0 0 0.0470588 0 0 0 0 0.0509804 0 0 0 0.05 0"/>
<feBlend mode="normal" in2="BackgroundImageFix" result="effect1_dropShadow_12_2"/>
<feColorMatrix in="SourceAlpha" type="matrix" values="0 0 0 0 0 0 0 0 0 0 0 0 0 0 0 0 0 0 127 0" result="hardAlpha"/>
<feOffset dy="1"/>
<feGaussianBlur stdDeviation="2"/>
<feComposite in2="hardAlpha" operator="out"/>
<feColorMatrix type="matrix" values="0 0 0 0 0.0470588 0 0 0 0 0.0470588 0 0 0 0 0.0509804 0 0 0 0.1 0"/>
<feBlend mode="normal" in2="effect1_dropShadow_12_2" result="effect2_dropShadow_12_2"/>
<feBlend mode="normal" in="SourceGraphic" in2="effect2_dropShadow_12_2" result="shape"/>
</filter>
</defs>
</svg>
